<?xml version="1.0" encoding="UTF-8" standalone="no"?><svg xmlns="http://www.w3.org/2000/svg" xmlns:xlink="http://www.w3.org/1999/xlink" clip-rule="evenodd" stroke-miterlimit="4.00" viewBox="0 0 1024 768"><desc>SVG generated by Keynote</desc><defs><pattern id="B02F0DBD-CC81-4C4F-962B-7006A1EBDDBD" patternUnits="userSpaceOnUse" width="185" height="185" viewBox="0 0 185 185" patternTransform="matrix(0.691892, 0.000000, 0.000000, -0.691892, 442.739200, 436.031700)"><image xlink:href="469CC0295966B001A263AF4C0E676CAC.jpeg" width="185.00" height="185.00"></image></pattern></defs><g transform="matrix(1.00, 0.00, -0.00, -1.00, 0.0, 768.0)"><path d="M 0.0 768.0 L 1024.0 768.0 L 1024.0 0.0 L 0.0 0.0 Z M 0.0 768.0 " fill="#000000"></path><g><clipPath id="clip-78"><path d="M 187.9 511.5 L 834.2 511.5 L 834.2 737.3 L 187.9 737.3 Z M 187.9 511.5 "></path></clipPath><g clip-path="url(#clip-78)"><path d="M 738.8 703.5 C 864.6 659.8 864.6 589.0 738.8 545.3 C 613.0 501.6 409.0 501.6 283.2 545.3 C 157.4 589.0 157.4 659.8 283.2 703.5 C 409.0 747.2 613.0 747.2 738.8 703.5 Z M 738.8 703.5 " fill="#C2D4EB" fill-opacity="0.40"></path></g></g><g><clipPath id="clip-79"><path d="M 446.9 106.9 L 577.2 106.9 L 577.2 189.9 L 446.9 189.9 Z M 446.9 106.9 "></path></clipPath><g clip-path="url(#clip-79)"><path d="M 449.6 148.4 L 480.8 148.4 L 480.8 188.4 L 543.2 188.4 L 543.2 148.4 L 574.5 148.4 L 512.0 108.5 Z M 449.6 148.4 " fill="#B3CAE6"></path><path d="M 0.0 40.0 L 31.2 40.0 L 31.2 0.0 L 93.6 0.0 L 93.6 40.0 L 124.9 40.0 L 62.4 79.9 Z M 0.0 40.0 " fill="none" stroke="#FFFFFF" stroke-width="1.00" stroke-miterlimit="8.00" transform="matrix(1.00, 0.00, 0.00, -1.00, 449.6, 188.4)"></path></g></g><g><clipPath id="clip-80"><path d="M 212.3 4.2 L 811.7 4.2 L 811.7 94.9 L 212.3 94.9 Z M 212.3 4.2 "></path></clipPath><g clip-path="url(#clip-80)"><text xml:space="preserve" font-family="Helvetica-Light" font-size="36.0" fill="#FEFFFF" transform="matrix(1.00, 0.00, -0.00, -1.00, 298.0, 37.0)">N</text><text xml:space="preserve" font-family="Helvetica-Light" font-size="36.0" fill="#FEFFFF" transform="matrix(1.00, 0.00, -0.00, -1.00, 324.0, 37.0)">a</text><text xml:space="preserve" font-family="Helvetica-Light" font-size="36.0" fill="#FEFFFF" transform="matrix(1.00, 0.00, -0.00, -1.00, 344.0, 37.0)">t</text><text xml:space="preserve" font-family="Helvetica-Light" font-size="36.0" fill="#FEFFFF" transform="matrix(1.00, 0.00, -0.00, -1.00, 354.0, 37.0)">u</text><text xml:space="preserve" font-family="Helvetica-Light" font-size="36.0" fill="#FEFFFF" transform="matrix(1.00, 0.00, -0.00, -1.00, 374.0, 37.0)">r</text><text xml:space="preserve" font-family="Helvetica-Light" font-size="36.0" fill="#FEFFFF" transform="matrix(1.00, 0.00, -0.00, -1.00, 386.0, 37.0)">a</text><text xml:space="preserve" font-family="Helvetica-Light" font-size="36.0" fill="#FEFFFF" transform="matrix(1.00, 0.00, -0.00, -1.00, 406.0, 37.0)">l</text><text xml:space="preserve" font-family="Helvetica-Light" font-size="36.0" fill="#FEFFFF" transform="matrix(1.00, 0.00, -0.00, -1.00, 414.0, 37.0)"> </text><text xml:space="preserve" font-family="Helvetica-Light" font-size="36.0" fill="#FEFFFF" transform="matrix(1.00, 0.00, -0.00, -1.00, 424.0, 37.0)">F</text><text xml:space="preserve" font-family="Helvetica-Light" font-size="36.0" fill="#FEFFFF" transform="matrix(1.00, 0.00, -0.00, -1.00, 444.1, 37.0)">e</text><text xml:space="preserve" font-family="Helvetica-Light" font-size="36.0" fill="#FEFFFF" transform="matrix(1.00, 0.00, -0.00, -1.00, 464.1, 37.0)">a</text><text xml:space="preserve" font-family="Helvetica-Light" font-size="36.0" fill="#FEFFFF" transform="matrix(1.00, 0.00, -0.00, -1.00, 484.1, 37.0)">t</text><text xml:space="preserve" font-family="Helvetica-Light" font-size="36.0" fill="#FEFFFF" transform="matrix(1.00, 0.00, -0.00, -1.00, 494.1, 37.0)">u</text><text xml:space="preserve" font-family="Helvetica-Light" font-size="36.0" fill="#FEFFFF" transform="matrix(1.00, 0.00, -0.00, -1.00, 514.1, 37.0)">r</text><text xml:space="preserve" font-family="Helvetica-Light" font-size="36.0" fill="#FEFFFF" transform="matrix(1.00, 0.00, -0.00, -1.00, 525.4, 37.0)">e</text><text xml:space="preserve" font-family="Helvetica-Light" font-size="36.0" fill="#FEFFFF" transform="matrix(1.00, 0.00, -0.00, -1.00, 545.5, 37.0)">s</text><text xml:space="preserve" font-family="Helvetica-Light" font-size="36.0" fill="#FEFFFF" transform="matrix(1.00, 0.00, -0.00, -1.00, 563.5, 37.0)"> </text><text xml:space="preserve" font-family="Helvetica-Light" font-size="36.0" fill="#FEFFFF" transform="matrix(1.00, 0.00, -0.00, -1.00, 573.5, 37.0)">d</text><text xml:space="preserve" font-family="Helvetica-Light" font-size="36.0" fill="#FEFFFF" transform="matrix(1.00, 0.00, -0.00, -1.00, 595.5, 37.0)">a</text><text xml:space="preserve" font-family="Helvetica-Light" font-size="36.0" fill="#FEFFFF" transform="matrix(1.00, 0.00, -0.00, -1.00, 615.5, 37.0)">t</text><text xml:space="preserve" font-family="Helvetica-Light" font-size="36.0" fill="#FEFFFF" transform="matrix(1.00, 0.00, -0.00, -1.00, 625.5, 37.0)">a</text><text xml:space="preserve" font-family="Helvetica-Light" font-size="36.0" fill="#FEFFFF" transform="matrix(1.00, 0.00, -0.00, -1.00, 645.5, 37.0)">b</text><text xml:space="preserve" font-family="Helvetica-Light" font-size="36.0" fill="#FEFFFF" transform="matrix(1.00, 0.00, -0.00, -1.00, 667.5, 37.0)">a</text><text xml:space="preserve" font-family="Helvetica-Light" font-size="36.0" fill="#FEFFFF" transform="matrix(1.00, 0.00, -0.00, -1.00, 687.5, 37.0)">s</text><text xml:space="preserve" font-family="Helvetica-Light" font-size="36.0" fill="#FEFFFF" transform="matrix(1.00, 0.00, -0.00, -1.00, 705.5, 37.0)">e</text></g></g><g><clipPath id="clip-81"><path d="M 421.6 269.0 L 649.4 269.0 L 649.4 496.8 L 421.6 496.8 Z M 421.6 269.0 "></path></clipPath><g clip-path="url(#clip-81)"><path d="M 423.1 382.9 C 423.1 445.0 473.4 495.3 535.5 495.3 C 597.6 495.3 647.9 445.0 647.9 382.9 C 647.9 320.8 597.6 270.5 535.5 270.5 C 473.4 270.5 423.1 320.8 423.1 382.9 Z M 423.1 382.9 " fill="#5A9BD5"></path><path d="M 0.0 112.4 C 0.0 50.3 50.3 0.0 112.4 0.0 C 174.4 0.0 224.8 50.3 224.8 112.4 C 224.8 174.4 174.4 224.8 112.4 224.8 C 50.3 224.8 0.0 174.4 0.0 112.4 Z M 0.0 112.4 " fill="none" stroke="#FFFFFF" stroke-width="1.00" stroke-miterlimit="8.00" transform="matrix(1.00, 0.00, 0.00, -1.00, 423.1, 495.3)"></path></g></g><g><clipPath id="clip-82"><path d="M 423.1 330.5 L 647.9 330.5 L 647.9 435.2 L 423.1 435.2 Z M 423.1 330.5 "></path></clipPath><g clip-path="url(#clip-82)"><text xml:space="preserve" font-family="Helvetica-Light" font-size="11.0" fill="#FEFFFF" transform="matrix(1.00, 0.00, -0.00, -1.00, 485.0, 391.0)">W</text><text xml:space="preserve" font-family="Helvetica-Light" font-size="11.0" fill="#FEFFFF" transform="matrix(1.00, 0.00, -0.00, -1.00, 494.6, 391.0)">e</text><text xml:space="preserve" font-family="Helvetica-Light" font-size="11.0" fill="#FEFFFF" transform="matrix(1.00, 0.00, -0.00, -1.00, 500.7, 391.0)">t</text><text xml:space="preserve" font-family="Helvetica-Light" font-size="11.0" fill="#FEFFFF" transform="matrix(1.00, 0.00, -0.00, -1.00, 503.8, 391.0)">l</text><text xml:space="preserve" font-family="Helvetica-Light" font-size="11.0" fill="#FEFFFF" transform="matrix(1.00, 0.00, -0.00, -1.00, 506.2, 391.0)">a</text><text xml:space="preserve" font-family="Helvetica-Light" font-size="11.0" fill="#FEFFFF" transform="matrix(1.00, 0.00, -0.00, -1.00, 512.3, 391.0)">n</text><text xml:space="preserve" font-family="Helvetica-Light" font-size="11.0" fill="#FEFFFF" transform="matrix(1.00, 0.00, -0.00, -1.00, 518.4, 391.0)">d</text><text xml:space="preserve" font-family="Helvetica-Light" font-size="11.0" fill="#FEFFFF" transform="matrix(1.00, 0.00, -0.00, -1.00, 525.1, 391.0)">:</text><text xml:space="preserve" font-family="Helvetica-Light" font-size="11.0" fill="#FEFFFF" transform="matrix(1.00, 0.00, -0.00, -1.00, 528.2, 391.0)"> </text><text xml:space="preserve" font-family="Helvetica-Light" font-size="11.0" fill="#FEFFFF" transform="matrix(1.00, 0.00, -0.00, -1.00, 531.3, 391.0)">H</text><text xml:space="preserve" font-family="Helvetica-Light" font-size="11.0" fill="#FEFFFF" transform="matrix(1.00, 0.00, -0.00, -1.00, 539.2, 391.0)">e</text><text xml:space="preserve" font-family="Helvetica-Light" font-size="11.0" fill="#FEFFFF" transform="matrix(1.00, 0.00, -0.00, -1.00, 545.3, 391.0)">a</text><text xml:space="preserve" font-family="Helvetica-Light" font-size="11.0" fill="#FEFFFF" transform="matrix(1.00, 0.00, -0.00, -1.00, 551.4, 391.0)">d</text><text xml:space="preserve" font-family="Helvetica-Light" font-size="11.0" fill="#FEFFFF" transform="matrix(1.00, 0.00, -0.00, -1.00, 558.2, 391.0)">w</text><text xml:space="preserve" font-family="Helvetica-Light" font-size="11.0" fill="#FEFFFF" transform="matrix(1.00, 0.00, -0.00, -1.00, 566.1, 391.0)">a</text><text xml:space="preserve" font-family="Helvetica-Light" font-size="11.0" fill="#FEFFFF" transform="matrix(1.00, 0.00, -0.00, -1.00, 572.2, 391.0)">t</text><text xml:space="preserve" font-family="Helvetica-Light" font-size="11.0" fill="#FEFFFF" transform="matrix(1.00, 0.00, -0.00, -1.00, 575.3, 391.0)">e</text><text xml:space="preserve" font-family="Helvetica-Light" font-size="11.0" fill="#FEFFFF" transform="matrix(1.00, 0.00, -0.00, -1.00, 581.4, 391.0)">r</text><text xml:space="preserve" font-family="Helvetica-Light" font-size="11.0" fill="#FEFFFF" transform="matrix(1.00, 0.00, -0.00, -1.00, 585.1, 391.0)"> </text><text xml:space="preserve" font-family="Helvetica-Light" font-size="11.0" fill="#FEFFFF" transform="matrix(1.00, 0.00, -0.00, -1.00, 450.0, 379.0)">M</text><text xml:space="preserve" font-family="Helvetica-Light" font-size="11.0" fill="#FEFFFF" transform="matrix(1.00, 0.00, -0.00, -1.00, 459.2, 379.0)">a</text><text xml:space="preserve" font-family="Helvetica-Light" font-size="11.0" fill="#FEFFFF" transform="matrix(1.00, 0.00, -0.00, -1.00, 465.3, 379.0)">c</text><text xml:space="preserve" font-family="Helvetica-Light" font-size="11.0" fill="#FEFFFF" transform="matrix(1.00, 0.00, -0.00, -1.00, 471.4, 379.0)">r</text><text xml:space="preserve" font-family="Helvetica-Light" font-size="11.0" fill="#FEFFFF" transform="matrix(1.00, 0.00, -0.00, -1.00, 474.9, 379.0)">o</text><text xml:space="preserve" font-family="Helvetica-Light" font-size="11.0" fill="#FEFFFF" transform="matrix(1.00, 0.00, -0.00, -1.00, 481.0, 379.0)">i</text><text xml:space="preserve" font-family="Helvetica-Light" font-size="11.0" fill="#FEFFFF" transform="matrix(1.00, 0.00, -0.00, -1.00, 483.4, 379.0)">n</text><text xml:space="preserve" font-family="Helvetica-Light" font-size="11.0" fill="#FEFFFF" transform="matrix(1.00, 0.00, -0.00, -1.00, 489.5, 379.0)">v</text><text xml:space="preserve" font-family="Helvetica-Light" font-size="11.0" fill="#FEFFFF" transform="matrix(1.00, 0.00, -0.00, -1.00, 495.0, 379.0)">e</text><text xml:space="preserve" font-family="Helvetica-Light" font-size="11.0" fill="#FEFFFF" transform="matrix(1.00, 0.00, -0.00, -1.00, 501.1, 379.0)">r</text><text xml:space="preserve" font-family="Helvetica-Light" font-size="11.0" fill="#FEFFFF" transform="matrix(1.00, 0.00, -0.00, -1.00, 505.0, 379.0)">t</text><text xml:space="preserve" font-family="Helvetica-Light" font-size="11.0" fill="#FEFFFF" transform="matrix(1.00, 0.00, -0.00, -1.00, 508.1, 379.0)">e</text><text xml:space="preserve" font-family="Helvetica-Light" font-size="11.0" fill="#FEFFFF" transform="matrix(1.00, 0.00, -0.00, -1.00, 514.2, 379.0)">b</text><text xml:space="preserve" font-family="Helvetica-Light" font-size="11.0" fill="#FEFFFF" transform="matrix(1.00, 0.00, -0.00, -1.00, 520.9, 379.0)">r</text><text xml:space="preserve" font-family="Helvetica-Light" font-size="11.0" fill="#FEFFFF" transform="matrix(1.00, 0.00, -0.00, -1.00, 524.6, 379.0)">a</text><text xml:space="preserve" font-family="Helvetica-Light" font-size="11.0" fill="#FEFFFF" transform="matrix(1.00, 0.00, -0.00, -1.00, 530.7, 379.0)">t</text><text xml:space="preserve" font-family="Helvetica-Light" font-size="11.0" fill="#FEFFFF" transform="matrix(1.00, 0.00, -0.00, -1.00, 533.7, 379.0)">e</text><text xml:space="preserve" font-family="Helvetica-Light" font-size="11.0" fill="#FEFFFF" transform="matrix(1.00, 0.00, -0.00, -1.00, 539.9, 379.0)"> </text><text xml:space="preserve" font-family="Helvetica-Light" font-size="11.0" fill="#FEFFFF" transform="matrix(1.00, 0.00, -0.00, -1.00, 542.9, 379.0)">F</text><text xml:space="preserve" font-family="Helvetica-Light" font-size="11.0" fill="#FEFFFF" transform="matrix(1.00, 0.00, -0.00, -1.00, 549.0, 379.0)">i</text><text xml:space="preserve" font-family="Helvetica-Light" font-size="11.0" fill="#FEFFFF" transform="matrix(1.00, 0.00, -0.00, -1.00, 551.5, 379.0)">e</text><text xml:space="preserve" font-family="Helvetica-Light" font-size="11.0" fill="#FEFFFF" transform="matrix(1.00, 0.00, -0.00, -1.00, 557.6, 379.0)">l</text><text xml:space="preserve" font-family="Helvetica-Light" font-size="11.0" fill="#FEFFFF" transform="matrix(1.00, 0.00, -0.00, -1.00, 560.0, 379.0)">d</text><text xml:space="preserve" font-family="Helvetica-Light" font-size="11.0" fill="#FEFFFF" transform="matrix(1.00, 0.00, -0.00, -1.00, 566.8, 379.0)"> </text><text xml:space="preserve" font-family="Helvetica-Light" font-size="11.0" fill="#FEFFFF" transform="matrix(1.00, 0.00, -0.00, -1.00, 569.8, 379.0)">E</text><text xml:space="preserve" font-family="Helvetica-Light" font-size="11.0" fill="#FEFFFF" transform="matrix(1.00, 0.00, -0.00, -1.00, 576.5, 379.0)">v</text><text xml:space="preserve" font-family="Helvetica-Light" font-size="11.0" fill="#FEFFFF" transform="matrix(1.00, 0.00, -0.00, -1.00, 582.0, 379.0)">a</text><text xml:space="preserve" font-family="Helvetica-Light" font-size="11.0" fill="#FEFFFF" transform="matrix(1.00, 0.00, -0.00, -1.00, 588.1, 379.0)">l</text><text xml:space="preserve" font-family="Helvetica-Light" font-size="11.0" fill="#FEFFFF" transform="matrix(1.00, 0.00, -0.00, -1.00, 590.6, 379.0)">u</text><text xml:space="preserve" font-family="Helvetica-Light" font-size="11.0" fill="#FEFFFF" transform="matrix(1.00, 0.00, -0.00, -1.00, 596.7, 379.0)">a</text><text xml:space="preserve" font-family="Helvetica-Light" font-size="11.0" fill="#FEFFFF" transform="matrix(1.00, 0.00, -0.00, -1.00, 602.8, 379.0)">t</text><text xml:space="preserve" font-family="Helvetica-Light" font-size="11.0" fill="#FEFFFF" transform="matrix(1.00, 0.00, -0.00, -1.00, 605.9, 379.0)">i</text><text xml:space="preserve" font-family="Helvetica-Light" font-size="11.0" fill="#FEFFFF" transform="matrix(1.00, 0.00, -0.00, -1.00, 608.3, 379.0)">o</text><text xml:space="preserve" font-family="Helvetica-Light" font-size="11.0" fill="#FEFFFF" transform="matrix(1.00, 0.00, -0.00, -1.00, 614.4, 379.0)">n</text><text xml:space="preserve" font-family="Helvetica-Light" font-size="11.0" fill="#FEFFFF" transform="matrix(1.00, 0.00, -0.00, -1.00, 620.6, 379.0)"> </text><text xml:space="preserve" font-family="Helvetica-Light" font-size="11.0" fill="#FEFFFF" transform="matrix(1.00, 0.00, -0.00, -1.00, 522.0, 367.0)">I</text><text xml:space="preserve" font-family="Helvetica-Light" font-size="11.0" fill="#FEFFFF" transform="matrix(1.00, 0.00, -0.00, -1.00, 525.1, 367.0)">n</text><text xml:space="preserve" font-family="Helvetica-Light" font-size="11.0" fill="#FEFFFF" transform="matrix(1.00, 0.00, -0.00, -1.00, 531.2, 367.0)">d</text><text xml:space="preserve" font-family="Helvetica-Light" font-size="11.0" fill="#FEFFFF" transform="matrix(1.00, 0.00, -0.00, -1.00, 537.9, 367.0)">e</text><text xml:space="preserve" font-family="Helvetica-Light" font-size="11.0" fill="#FEFFFF" transform="matrix(1.00, 0.00, -0.00, -1.00, 544.0, 367.0)">x</text></g></g><g><clipPath id="clip-83"><path d="M 260.8 437.6 L 488.5 437.6 L 488.5 665.4 L 260.8 665.4 Z M 260.8 437.6 "></path></clipPath><g clip-path="url(#clip-83)"><path d="M 262.3 551.5 C 262.3 613.6 312.6 663.9 374.7 663.9 C 436.7 663.9 487.0 613.6 487.0 551.5 C 487.0 489.4 436.7 439.1 374.7 439.1 C 312.6 439.1 262.3 489.4 262.3 551.5 Z M 262.3 551.5 " fill="#5A9BD5"></path><path d="M 0.0 112.4 C 0.0 50.3 50.3 0.0 112.4 0.0 C 174.4 0.0 224.8 50.3 224.8 112.4 C 224.8 174.4 174.4 224.8 112.4 224.8 C 50.3 224.8 0.0 174.4 0.0 112.4 Z M 0.0 112.4 " fill="none" stroke="#FFFFFF" stroke-width="1.00" stroke-miterlimit="8.00" transform="matrix(1.00, 0.00, 0.00, -1.00, 262.3, 663.9)"></path></g></g><g><clipPath id="clip-84"><path d="M 262.3 478.8 L 487.0 478.8 L 487.0 624.2 L 262.3 624.2 Z M 262.3 478.8 "></path></clipPath><g clip-path="url(#clip-84)"><text xml:space="preserve" font-family="Helvetica-Light" font-size="22.0" fill="#FEFFFF" transform="matrix(1.00, 0.00, -0.00, -1.00, 321.0, 579.0)">H</text><text xml:space="preserve" font-family="Helvetica-Light" font-size="22.0" fill="#FEFFFF" transform="matrix(1.00, 0.00, -0.00, -1.00, 336.9, 579.0)">e</text><text xml:space="preserve" font-family="Helvetica-Light" font-size="22.0" fill="#FEFFFF" transform="matrix(1.00, 0.00, -0.00, -1.00, 349.1, 579.0)">a</text><text xml:space="preserve" font-family="Helvetica-Light" font-size="22.0" fill="#FEFFFF" transform="matrix(1.00, 0.00, -0.00, -1.00, 361.3, 579.0)">d</text><text xml:space="preserve" font-family="Helvetica-Light" font-size="22.0" fill="#FEFFFF" transform="matrix(1.00, 0.00, -0.00, -1.00, 374.8, 579.0)">w</text><text xml:space="preserve" font-family="Helvetica-Light" font-size="22.0" fill="#FEFFFF" transform="matrix(1.00, 0.00, -0.00, -1.00, 390.7, 579.0)">a</text><text xml:space="preserve" font-family="Helvetica-Light" font-size="22.0" fill="#FEFFFF" transform="matrix(1.00, 0.00, -0.00, -1.00, 402.9, 579.0)">t</text><text xml:space="preserve" font-family="Helvetica-Light" font-size="22.0" fill="#FEFFFF" transform="matrix(1.00, 0.00, -0.00, -1.00, 409.0, 579.0)">e</text><text xml:space="preserve" font-family="Helvetica-Light" font-size="22.0" fill="#FEFFFF" transform="matrix(1.00, 0.00, -0.00, -1.00, 421.3, 579.0)">r</text><text xml:space="preserve" font-family="Helvetica-Light" font-size="22.0" fill="#FEFFFF" transform="matrix(1.00, 0.00, -0.00, -1.00, 428.6, 579.0)"> </text><text xml:space="preserve" font-family="Helvetica-Light" font-size="22.0" fill="#FEFFFF" transform="matrix(1.00, 0.00, -0.00, -1.00, 285.0, 556.0)">M</text><text xml:space="preserve" font-family="Helvetica-Light" font-size="22.0" fill="#FEFFFF" transform="matrix(1.00, 0.00, -0.00, -1.00, 303.3, 556.0)">a</text><text xml:space="preserve" font-family="Helvetica-Light" font-size="22.0" fill="#FEFFFF" transform="matrix(1.00, 0.00, -0.00, -1.00, 315.6, 556.0)">c</text><text xml:space="preserve" font-family="Helvetica-Light" font-size="22.0" fill="#FEFFFF" transform="matrix(1.00, 0.00, -0.00, -1.00, 327.8, 556.0)">r</text><text xml:space="preserve" font-family="Helvetica-Light" font-size="22.0" fill="#FEFFFF" transform="matrix(1.00, 0.00, -0.00, -1.00, 334.7, 556.0)">o</text><text xml:space="preserve" font-family="Helvetica-Light" font-size="22.0" fill="#FEFFFF" transform="matrix(1.00, 0.00, -0.00, -1.00, 347.0, 556.0)">i</text><text xml:space="preserve" font-family="Helvetica-Light" font-size="22.0" fill="#FEFFFF" transform="matrix(1.00, 0.00, -0.00, -1.00, 351.8, 556.0)">n</text><text xml:space="preserve" font-family="Helvetica-Light" font-size="22.0" fill="#FEFFFF" transform="matrix(1.00, 0.00, -0.00, -1.00, 364.1, 556.0)">v</text><text xml:space="preserve" font-family="Helvetica-Light" font-size="22.0" fill="#FEFFFF" transform="matrix(1.00, 0.00, -0.00, -1.00, 375.1, 556.0)">e</text><text xml:space="preserve" font-family="Helvetica-Light" font-size="22.0" fill="#FEFFFF" transform="matrix(1.00, 0.00, -0.00, -1.00, 387.3, 556.0)">r</text><text xml:space="preserve" font-family="Helvetica-Light" font-size="22.0" fill="#FEFFFF" transform="matrix(1.00, 0.00, -0.00, -1.00, 395.0, 556.0)">t</text><text xml:space="preserve" font-family="Helvetica-Light" font-size="22.0" fill="#FEFFFF" transform="matrix(1.00, 0.00, -0.00, -1.00, 401.1, 556.0)">e</text><text xml:space="preserve" font-family="Helvetica-Light" font-size="22.0" fill="#FEFFFF" transform="matrix(1.00, 0.00, -0.00, -1.00, 413.4, 556.0)">b</text><text xml:space="preserve" font-family="Helvetica-Light" font-size="22.0" fill="#FEFFFF" transform="matrix(1.00, 0.00, -0.00, -1.00, 426.8, 556.0)">r</text><text xml:space="preserve" font-family="Helvetica-Light" font-size="22.0" fill="#FEFFFF" transform="matrix(1.00, 0.00, -0.00, -1.00, 434.1, 556.0)">a</text><text xml:space="preserve" font-family="Helvetica-Light" font-size="22.0" fill="#FEFFFF" transform="matrix(1.00, 0.00, -0.00, -1.00, 446.4, 556.0)">t</text><text xml:space="preserve" font-family="Helvetica-Light" font-size="22.0" fill="#FEFFFF" transform="matrix(1.00, 0.00, -0.00, -1.00, 452.5, 556.0)">e</text><text xml:space="preserve" font-family="Helvetica-Light" font-size="22.0" fill="#FEFFFF" transform="matrix(1.00, 0.00, -0.00, -1.00, 464.7, 556.0)"> </text><text xml:space="preserve" font-family="Helvetica-Light" font-size="22.0" fill="#FEFFFF" transform="matrix(1.00, 0.00, -0.00, -1.00, 297.0, 533.0)">F</text><text xml:space="preserve" font-family="Helvetica-Light" font-size="22.0" fill="#FEFFFF" transform="matrix(1.00, 0.00, -0.00, -1.00, 309.2, 533.0)">i</text><text xml:space="preserve" font-family="Helvetica-Light" font-size="22.0" fill="#FEFFFF" transform="matrix(1.00, 0.00, -0.00, -1.00, 314.1, 533.0)">e</text><text xml:space="preserve" font-family="Helvetica-Light" font-size="22.0" fill="#FEFFFF" transform="matrix(1.00, 0.00, -0.00, -1.00, 326.3, 533.0)">l</text><text xml:space="preserve" font-family="Helvetica-Light" font-size="22.0" fill="#FEFFFF" transform="matrix(1.00, 0.00, -0.00, -1.00, 331.2, 533.0)">d</text><text xml:space="preserve" font-family="Helvetica-Light" font-size="22.0" fill="#FEFFFF" transform="matrix(1.00, 0.00, -0.00, -1.00, 344.7, 533.0)"> </text><text xml:space="preserve" font-family="Helvetica-Light" font-size="22.0" fill="#FEFFFF" transform="matrix(1.00, 0.00, -0.00, -1.00, 350.8, 533.0)">E</text><text xml:space="preserve" font-family="Helvetica-Light" font-size="22.0" fill="#FEFFFF" transform="matrix(1.00, 0.00, -0.00, -1.00, 364.2, 533.0)">v</text><text xml:space="preserve" font-family="Helvetica-Light" font-size="22.0" fill="#FEFFFF" transform="matrix(1.00, 0.00, -0.00, -1.00, 375.2, 533.0)">a</text><text xml:space="preserve" font-family="Helvetica-Light" font-size="22.0" fill="#FEFFFF" transform="matrix(1.00, 0.00, -0.00, -1.00, 387.5, 533.0)">l</text><text xml:space="preserve" font-family="Helvetica-Light" font-size="22.0" fill="#FEFFFF" transform="matrix(1.00, 0.00, -0.00, -1.00, 392.3, 533.0)">u</text><text xml:space="preserve" font-family="Helvetica-Light" font-size="22.0" fill="#FEFFFF" transform="matrix(1.00, 0.00, -0.00, -1.00, 404.6, 533.0)">a</text><text xml:space="preserve" font-family="Helvetica-Light" font-size="22.0" fill="#FEFFFF" transform="matrix(1.00, 0.00, -0.00, -1.00, 416.8, 533.0)">t</text><text xml:space="preserve" font-family="Helvetica-Light" font-size="22.0" fill="#FEFFFF" transform="matrix(1.00, 0.00, -0.00, -1.00, 422.9, 533.0)">i</text><text xml:space="preserve" font-family="Helvetica-Light" font-size="22.0" fill="#FEFFFF" transform="matrix(1.00, 0.00, -0.00, -1.00, 427.8, 533.0)">o</text><text xml:space="preserve" font-family="Helvetica-Light" font-size="22.0" fill="#FEFFFF" transform="matrix(1.00, 0.00, -0.00, -1.00, 440.0, 533.0)">n</text><text xml:space="preserve" font-family="Helvetica-Light" font-size="22.0" fill="#FEFFFF" transform="matrix(1.00, 0.00, -0.00, -1.00, 452.3, 533.0)"> </text><text xml:space="preserve" font-family="Helvetica-Light" font-size="22.0" fill="#FEFFFF" transform="matrix(1.00, 0.00, -0.00, -1.00, 347.0, 509.0)">I</text><text xml:space="preserve" font-family="Helvetica-Light" font-size="22.0" fill="#FEFFFF" transform="matrix(1.00, 0.00, -0.00, -1.00, 353.1, 509.0)">n</text><text xml:space="preserve" font-family="Helvetica-Light" font-size="22.0" fill="#FEFFFF" transform="matrix(1.00, 0.00, -0.00, -1.00, 365.3, 509.0)">d</text><text xml:space="preserve" font-family="Helvetica-Light" font-size="22.0" fill="#FEFFFF" transform="matrix(1.00, 0.00, -0.00, -1.00, 378.8, 509.0)">e</text><text xml:space="preserve" font-family="Helvetica-Light" font-size="22.0" fill="#FEFFFF" transform="matrix(1.00, 0.00, -0.00, -1.00, 391.0, 509.0)">x</text></g></g><g><clipPath id="clip-85"><path d="M 490.5 492.0 L 718.3 492.0 L 718.3 719.7 L 490.5 719.7 Z M 490.5 492.0 "></path></clipPath><g clip-path="url(#clip-85)"><path d="M 492.0 605.8 C 492.0 667.9 542.4 718.2 604.4 718.2 C 666.5 718.2 716.8 667.9 716.8 605.8 C 716.8 543.8 666.5 493.5 604.4 493.5 C 542.4 493.5 492.0 543.8 492.0 605.8 Z M 492.0 605.8 " fill="#5A9BD5"></path><path d="M 0.0 112.4 C 0.0 50.3 50.3 0.0 112.4 0.0 C 174.4 0.0 224.8 50.3 224.8 112.4 C 224.8 174.4 174.4 224.8 112.4 224.8 C 50.3 224.8 0.0 174.4 0.0 112.4 Z M 0.0 112.4 " fill="none" stroke="#FFFFFF" stroke-width="1.00" stroke-miterlimit="8.00" transform="matrix(1.00, 0.00, 0.00, -1.00, 492.0, 718.2)"></path></g></g><g><clipPath id="clip-86"><path d="M 492.0 519.0 L 716.8 519.0 L 716.8 692.7 L 492.0 692.7 Z M 492.0 519.0 "></path></clipPath><g clip-path="url(#clip-86)"><text xml:space="preserve" font-family="Helvetica-Light" font-size="24.0" fill="#FEFFFF" transform="matrix(1.00, 0.00, -0.00, -1.00, 514.0, 609.0)">V</text><text xml:space="preserve" font-family="Helvetica-Light" font-size="24.0" fill="#FEFFFF" transform="matrix(1.00, 0.00, -0.00, -1.00, 527.3, 609.0)">e</text><text xml:space="preserve" font-family="Helvetica-Light" font-size="24.0" fill="#FEFFFF" transform="matrix(1.00, 0.00, -0.00, -1.00, 540.7, 609.0)">g</text><text xml:space="preserve" font-family="Helvetica-Light" font-size="24.0" fill="#FEFFFF" transform="matrix(1.00, 0.00, -0.00, -1.00, 555.4, 609.0)">e</text><text xml:space="preserve" font-family="Helvetica-Light" font-size="24.0" fill="#FEFFFF" transform="matrix(1.00, 0.00, -0.00, -1.00, 568.7, 609.0)">t</text><text xml:space="preserve" font-family="Helvetica-Light" font-size="24.0" fill="#FEFFFF" transform="matrix(1.00, 0.00, -0.00, -1.00, 575.4, 609.0)">a</text><text xml:space="preserve" font-family="Helvetica-Light" font-size="24.0" fill="#FEFFFF" transform="matrix(1.00, 0.00, -0.00, -1.00, 588.7, 609.0)">t</text><text xml:space="preserve" font-family="Helvetica-Light" font-size="24.0" fill="#FEFFFF" transform="matrix(1.00, 0.00, -0.00, -1.00, 595.4, 609.0)">i</text><text xml:space="preserve" font-family="Helvetica-Light" font-size="24.0" fill="#FEFFFF" transform="matrix(1.00, 0.00, -0.00, -1.00, 600.7, 609.0)">o</text><text xml:space="preserve" font-family="Helvetica-Light" font-size="24.0" fill="#FEFFFF" transform="matrix(1.00, 0.00, -0.00, -1.00, 614.1, 609.0)">n</text><text xml:space="preserve" font-family="Helvetica-Light" font-size="24.0" fill="#FEFFFF" transform="matrix(1.00, 0.00, -0.00, -1.00, 627.4, 609.0)"> </text><text xml:space="preserve" font-family="Helvetica-Light" font-size="24.0" fill="#FEFFFF" transform="matrix(1.00, 0.00, -0.00, -1.00, 634.1, 609.0)">I</text><text xml:space="preserve" font-family="Helvetica-Light" font-size="24.0" fill="#FEFFFF" transform="matrix(1.00, 0.00, -0.00, -1.00, 640.7, 609.0)">n</text><text xml:space="preserve" font-family="Helvetica-Light" font-size="24.0" fill="#FEFFFF" transform="matrix(1.00, 0.00, -0.00, -1.00, 654.1, 609.0)">d</text><text xml:space="preserve" font-family="Helvetica-Light" font-size="24.0" fill="#FEFFFF" transform="matrix(1.00, 0.00, -0.00, -1.00, 668.8, 609.0)">e</text><text xml:space="preserve" font-family="Helvetica-Light" font-size="24.0" fill="#FEFFFF" transform="matrix(1.00, 0.00, -0.00, -1.00, 682.1, 609.0)">x</text><text xml:space="preserve" font-family="Helvetica-Light" font-size="24.0" fill="#FEFFFF" transform="matrix(1.00, 0.00, -0.00, -1.00, 694.1, 609.0)"> </text><text xml:space="preserve" font-family="Helvetica-Light" font-size="24.0" fill="#FEFFFF" transform="matrix(1.00, 0.00, -0.00, -1.00, 514.0, 583.0)">o</text><text xml:space="preserve" font-family="Helvetica-Light" font-size="24.0" fill="#FEFFFF" transform="matrix(1.00, 0.00, -0.00, -1.00, 527.3, 583.0)">f</text><text xml:space="preserve" font-family="Helvetica-Light" font-size="24.0" fill="#FEFFFF" transform="matrix(1.00, 0.00, -0.00, -1.00, 534.0, 583.0)"> </text><text xml:space="preserve" font-family="Helvetica-Light" font-size="24.0" fill="#FEFFFF" transform="matrix(1.00, 0.00, -0.00, -1.00, 540.7, 583.0)">B</text><text xml:space="preserve" font-family="Helvetica-Light" font-size="24.0" fill="#FEFFFF" transform="matrix(1.00, 0.00, -0.00, -1.00, 556.7, 583.0)">i</text><text xml:space="preserve" font-family="Helvetica-Light" font-size="24.0" fill="#FEFFFF" transform="matrix(1.00, 0.00, -0.00, -1.00, 562.0, 583.0)">o</text><text xml:space="preserve" font-family="Helvetica-Light" font-size="24.0" fill="#FEFFFF" transform="matrix(1.00, 0.00, -0.00, -1.00, 575.4, 583.0)">t</text><text xml:space="preserve" font-family="Helvetica-Light" font-size="24.0" fill="#FEFFFF" transform="matrix(1.00, 0.00, -0.00, -1.00, 582.0, 583.0)">i</text><text xml:space="preserve" font-family="Helvetica-Light" font-size="24.0" fill="#FEFFFF" transform="matrix(1.00, 0.00, -0.00, -1.00, 587.4, 583.0)">c</text><text xml:space="preserve" font-family="Helvetica-Light" font-size="24.0" fill="#FEFFFF" transform="matrix(1.00, 0.00, -0.00, -1.00, 600.7, 583.0)"> </text><text xml:space="preserve" font-family="Helvetica-Light" font-size="24.0" fill="#FEFFFF" transform="matrix(1.00, 0.00, -0.00, -1.00, 607.4, 583.0)">I</text><text xml:space="preserve" font-family="Helvetica-Light" font-size="24.0" fill="#FEFFFF" transform="matrix(1.00, 0.00, -0.00, -1.00, 614.1, 583.0)">n</text><text xml:space="preserve" font-family="Helvetica-Light" font-size="24.0" fill="#FEFFFF" transform="matrix(1.00, 0.00, -0.00, -1.00, 627.4, 583.0)">t</text><text xml:space="preserve" font-family="Helvetica-Light" font-size="24.0" fill="#FEFFFF" transform="matrix(1.00, 0.00, -0.00, -1.00, 634.1, 583.0)">e</text><text xml:space="preserve" font-family="Helvetica-Light" font-size="24.0" fill="#FEFFFF" transform="matrix(1.00, 0.00, -0.00, -1.00, 647.4, 583.0)">g</text><text xml:space="preserve" font-family="Helvetica-Light" font-size="24.0" fill="#FEFFFF" transform="matrix(1.00, 0.00, -0.00, -1.00, 662.1, 583.0)">r</text><text xml:space="preserve" font-family="Helvetica-Light" font-size="24.0" fill="#FEFFFF" transform="matrix(1.00, 0.00, -0.00, -1.00, 670.1, 583.0)">i</text><text xml:space="preserve" font-family="Helvetica-Light" font-size="24.0" fill="#FEFFFF" transform="matrix(1.00, 0.00, -0.00, -1.00, 675.4, 583.0)">t</text><text xml:space="preserve" font-family="Helvetica-Light" font-size="24.0" fill="#FEFFFF" transform="matrix(1.00, 0.00, -0.00, -1.00, 682.1, 583.0)">y</text></g></g><g><clipPath id="clip-87"><path d="M 161.2 203.3 L 862.8 203.3 L 862.8 764.9 L 161.2 764.9 Z M 161.2 203.3 "></path></clipPath><g clip-path="url(#clip-87)"><path d="M 165.8 604.5 L 165.8 604.5 C 138.9 680.9 272.2 751.7 463.4 762.4 C 654.6 773.2 831.4 719.9 858.2 643.4 C 862.8 630.5 862.8 617.4 858.2 604.5 L 598.6 234.5 C 591.9 215.4 547.7 202.0 499.9 204.7 C 461.2 206.9 430.9 219.0 425.5 234.5 Z M 190.4 623.9 C 190.4 562.1 334.4 512.0 512.0 512.0 C 689.7 512.0 833.7 562.1 833.7 623.9 C 833.7 685.7 689.7 735.8 512.0 735.8 C 334.4 735.8 190.4 685.7 190.4 623.9 Z M 190.4 623.9 " fill="#FFFFFF" fill-opacity="0.40"></path><path d="M 3.4 159.3 L 3.4 159.3 C -23.4 82.8 109.8 12.1 301.0 1.4 C 492.2 -9.4 669.0 43.9 695.9 120.4 C 700.4 133.3 700.4 146.4 695.9 159.3 L 436.2 529.3 C 429.5 548.4 385.3 561.8 337.5 559.1 C 298.9 556.9 268.5 544.8 263.1 529.3 Z M 28.0 139.9 C 28.0 201.7 172.0 251.7 349.7 251.7 C 527.3 251.7 671.3 201.7 671.3 139.9 C 671.3 78.1 527.3 28.0 349.7 28.0 C 172.0 28.0 28.0 78.1 28.0 139.9 Z M 28.0 139.9 " fill="none" stroke="#5A9BD5" stroke-width="0.25" stroke-miterlimit="8.00" transform="matrix(1.00, 0.00, 0.00, -1.00, 162.4, 763.8)"></path></g></g><g><clipPath id="clip-88"><path d="M 442.7 436.0 L 626.8 436.0 L 626.8 336.0 L 442.7 336.0 Z M 442.7 436.0 "></path></clipPath><g clip-path="url(#clip-88)"><path d="M 442.7 336.0 L 626.8 336.0 L 626.8 436.0 L 442.7 436.0 Z M 442.7 336.0 " fill="url(#B02F0DBD-CC81-4C4F-962B-7006A1EBDDBD)"></path><path d="M 442.7 436.0 L 626.8 436.0 L 626.8 336.0 L 442.7 336.0 Z M 442.7 436.0 " fill="#9CC3E6"></path></g></g><text xml:space="preserve" font-family="Helvetica-Light" font-size="36.0" fill="#FEFFFF" transform="matrix(1.00, 0.00, -0.00, -1.00, 464.0, 435.0)">W</text><text xml:space="preserve" font-family="Helvetica-Light" font-size="36.0" fill="#FEFFFF" transform="matrix(1.00, 0.00, -0.00, -1.00, 495.4, 435.0)">e</text><text xml:space="preserve" font-family="Helvetica-Light" font-size="36.0" fill="#FEFFFF" transform="matrix(1.00, 0.00, -0.00, -1.00, 515.4, 435.0)">t</text><text xml:space="preserve" font-family="Helvetica-Light" font-size="36.0" fill="#FEFFFF" transform="matrix(1.00, 0.00, -0.00, -1.00, 525.4, 435.0)">l</text><text xml:space="preserve" font-family="Helvetica-Light" font-size="36.0" fill="#FEFFFF" transform="matrix(1.00, 0.00, -0.00, -1.00, 533.4, 435.0)">a</text><text xml:space="preserve" font-family="Helvetica-Light" font-size="36.0" fill="#FEFFFF" transform="matrix(1.00, 0.00, -0.00, -1.00, 553.4, 435.0)">n</text><text xml:space="preserve" font-family="Helvetica-Light" font-size="36.0" fill="#FEFFFF" transform="matrix(1.00, 0.00, -0.00, -1.00, 573.4, 435.0)">d</text><text xml:space="preserve" font-family="Helvetica-Light" font-size="36.0" fill="#FEFFFF" transform="matrix(1.00, 0.00, -0.00, -1.00, 595.4, 435.0)">:</text><text xml:space="preserve" font-family="Helvetica-Light" font-size="36.0" fill="#FEFFFF" transform="matrix(1.00, 0.00, -0.00, -1.00, 605.4, 435.0)"> </text><text xml:space="preserve" font-family="Helvetica-Light" font-size="36.0" fill="#FEFFFF" transform="matrix(1.00, 0.00, -0.00, -1.00, 444.0, 392.0)">O</text><text xml:space="preserve" font-family="Helvetica-Light" font-size="36.0" fill="#FEFFFF" transform="matrix(1.00, 0.00, -0.00, -1.00, 472.0, 392.0)">h</text><text xml:space="preserve" font-family="Helvetica-Light" font-size="36.0" fill="#FEFFFF" transform="matrix(1.00, 0.00, -0.00, -1.00, 492.0, 392.0)">i</text><text xml:space="preserve" font-family="Helvetica-Light" font-size="36.0" fill="#FEFFFF" transform="matrix(1.00, 0.00, -0.00, -1.00, 500.0, 392.0)">o</text><text xml:space="preserve" font-family="Helvetica-Light" font-size="36.0" fill="#FEFFFF" transform="matrix(1.00, 0.00, -0.00, -1.00, 520.0, 392.0)"> </text><text xml:space="preserve" font-family="Helvetica-Light" font-size="36.0" fill="#FEFFFF" transform="matrix(1.00, 0.00, -0.00, -1.00, 530.0, 392.0)">R</text><text xml:space="preserve" font-family="Helvetica-Light" font-size="36.0" fill="#FEFFFF" transform="matrix(1.00, 0.00, -0.00, -1.00, 554.1, 392.0)">a</text><text xml:space="preserve" font-family="Helvetica-Light" font-size="36.0" fill="#FEFFFF" transform="matrix(1.00, 0.00, -0.00, -1.00, 574.1, 392.0)">p</text><text xml:space="preserve" font-family="Helvetica-Light" font-size="36.0" fill="#FEFFFF" transform="matrix(1.00, 0.00, -0.00, -1.00, 596.1, 392.0)">i</text><text xml:space="preserve" font-family="Helvetica-Light" font-size="36.0" fill="#FEFFFF" transform="matrix(1.00, 0.00, -0.00, -1.00, 604.1, 392.0)">d</text><text xml:space="preserve" font-family="Helvetica-Light" font-size="36.0" fill="#FEFFFF" transform="matrix(1.00, 0.00, -0.00, -1.00, 626.1, 392.0)"> </text><text xml:space="preserve" font-family="Helvetica-Light" font-size="36.0" fill="#FEFFFF" transform="matrix(1.00, 0.00, -0.00, -1.00, 437.0, 349.0)">A</text><text xml:space="preserve" font-family="Helvetica-Light" font-size="36.0" fill="#FEFFFF" transform="matrix(1.00, 0.00, -0.00, -1.00, 461.0, 349.0)">s</text><text xml:space="preserve" font-family="Helvetica-Light" font-size="36.0" fill="#FEFFFF" transform="matrix(1.00, 0.00, -0.00, -1.00, 479.0, 349.0)">s</text><text xml:space="preserve" font-family="Helvetica-Light" font-size="36.0" fill="#FEFFFF" transform="matrix(1.00, 0.00, -0.00, -1.00, 497.0, 349.0)">e</text><text xml:space="preserve" font-family="Helvetica-Light" font-size="36.0" fill="#FEFFFF" transform="matrix(1.00, 0.00, -0.00, -1.00, 517.0, 349.0)">s</text><text xml:space="preserve" font-family="Helvetica-Light" font-size="36.0" fill="#FEFFFF" transform="matrix(1.00, 0.00, -0.00, -1.00, 535.0, 349.0)">s</text><text xml:space="preserve" font-family="Helvetica-Light" font-size="36.0" fill="#FEFFFF" transform="matrix(1.00, 0.00, -0.00, -1.00, 553.0, 349.0)">m</text><text xml:space="preserve" font-family="Helvetica-Light" font-size="36.0" fill="#FEFFFF" transform="matrix(1.00, 0.00, -0.00, -1.00, 583.0, 349.0)">e</text><text xml:space="preserve" font-family="Helvetica-Light" font-size="36.0" fill="#FEFFFF" transform="matrix(1.00, 0.00, -0.00, -1.00, 603.0, 349.0)">n</text><text xml:space="preserve" font-family="Helvetica-Light" font-size="36.0" fill="#FEFFFF" transform="matrix(1.00, 0.00, -0.00, -1.00, 623.0, 349.0)">t</text><text xml:space="preserve" font-family="Helvetica-Light" font-size="36.0" fill="#FEFFFF" transform="matrix(1.00, 0.00, -0.00, -1.00, 633.1, 349.0)"> </text><text xml:space="preserve" font-family="Helvetica-Light" font-size="36.0" fill="#FEFFFF" transform="matrix(1.00, 0.00, -0.00, -1.00, 474.0, 306.0)">M</text><text xml:space="preserve" font-family="Helvetica-Light" font-size="36.0" fill="#FEFFFF" transform="matrix(1.00, 0.00, -0.00, -1.00, 504.0, 306.0)">e</text><text xml:space="preserve" font-family="Helvetica-Light" font-size="36.0" fill="#FEFFFF" transform="matrix(1.00, 0.00, -0.00, -1.00, 524.0, 306.0)">t</text><text xml:space="preserve" font-family="Helvetica-Light" font-size="36.0" fill="#FEFFFF" transform="matrix(1.00, 0.00, -0.00, -1.00, 534.0, 306.0)">h</text><text xml:space="preserve" font-family="Helvetica-Light" font-size="36.0" fill="#FEFFFF" transform="matrix(1.00, 0.00, -0.00, -1.00, 554.0, 306.0)">o</text><text xml:space="preserve" font-family="Helvetica-Light" font-size="36.0" fill="#FEFFFF" transform="matrix(1.00, 0.00, -0.00, -1.00, 574.0, 306.0)">d</text></g></svg>