<?xml version="1.0" encoding="UTF-8" standalone="no"?><svg xmlns="http://www.w3.org/2000/svg" xmlns:xlink="http://www.w3.org/1999/xlink" clip-rule="evenodd" stroke-miterlimit="4.00" viewBox="0 0 1024 768"><desc>SVG generated by Keynote</desc><defs></defs><g transform="matrix(1.00, 0.00, -0.00, -1.00, 0.0, 768.0)"><path d="M 0.0 768.0 L 1024.0 768.0 L 1024.0 0.0 L 0.0 0.0 Z M 0.0 768.0 " fill="#000000"></path><image xlink:href="../../2B651D39-1A0F-46D3-BC47-629397605899/assets/7A1446CD893C96198DCF19226128BF96.jpeg" width="1024.00" height="731.00" transform="matrix(1.00, 0.00, -0.00, -1.00, 0.0, 750.0)"></image><image xlink:href="../../2B651D39-1A0F-46D3-BC47-629397605899/assets/7ABFC39C7AC64F2711DE0011F010072E.png" width="782.00" height="45.00" transform="matrix(1.00, 0.00, -0.00, -1.00, 110.0, 133.0)"></image><text xml:space="preserve" font-family="Helvetica-Light" font-size="36.0" fill="#FEFFFF" transform="matrix(1.00, 0.00, -0.00, -1.00, 113.0, 103.0)">N</text><text xml:space="preserve" font-family="Helvetica-Light" font-size="36.0" fill="#FEFFFF" transform="matrix(1.00, 0.00, -0.00, -1.00, 139.0, 103.0)">o</text><text xml:space="preserve" font-family="Helvetica-Light" font-size="36.0" fill="#FEFFFF" transform="matrix(1.00, 0.00, -0.00, -1.00, 159.0, 103.0)">r</text><text xml:space="preserve" font-family="Helvetica-Light" font-size="36.0" fill="#FEFFFF" transform="matrix(1.00, 0.00, -0.00, -1.00, 171.6, 103.0)">t</text><text xml:space="preserve" font-family="Helvetica-Light" font-size="36.0" fill="#FEFFFF" transform="matrix(1.00, 0.00, -0.00, -1.00, 181.7, 103.0)">h</text><text xml:space="preserve" font-family="Helvetica-Light" font-size="36.0" fill="#FEFFFF" transform="matrix(1.00, 0.00, -0.00, -1.00, 201.7, 103.0)">e</text><text xml:space="preserve" font-family="Helvetica-Light" font-size="36.0" fill="#FEFFFF" transform="matrix(1.00, 0.00, -0.00, -1.00, 221.7, 103.0)">r</text><text xml:space="preserve" font-family="Helvetica-Light" font-size="36.0" fill="#FEFFFF" transform="matrix(1.00, 0.00, -0.00, -1.00, 234.3, 103.0)">n</text><text xml:space="preserve" font-family="Helvetica-Light" font-size="36.0" fill="#FEFFFF" transform="matrix(1.00, 0.00, -0.00, -1.00, 254.3, 103.0)"> </text><text xml:space="preserve" font-family="Helvetica-Light" font-size="36.0" fill="#FEFFFF" transform="matrix(1.00, 0.00, -0.00, -1.00, 264.3, 103.0)">R</text><text xml:space="preserve" font-family="Helvetica-Light" font-size="36.0" fill="#FEFFFF" transform="matrix(1.00, 0.00, -0.00, -1.00, 288.4, 103.0)">e</text><text xml:space="preserve" font-family="Helvetica-Light" font-size="36.0" fill="#FEFFFF" transform="matrix(1.00, 0.00, -0.00, -1.00, 308.4, 103.0)">d</text><text xml:space="preserve" font-family="Helvetica-Light" font-size="36.0" fill="#FEFFFF" transform="matrix(1.00, 0.00, -0.00, -1.00, 330.4, 103.0)"> </text><text xml:space="preserve" font-family="Helvetica-Light" font-size="36.0" fill="#FEFFFF" transform="matrix(1.00, 0.00, -0.00, -1.00, 340.4, 103.0)">S</text><text xml:space="preserve" font-family="Helvetica-Light" font-size="36.0" fill="#FEFFFF" transform="matrix(1.00, 0.00, -0.00, -1.00, 362.4, 103.0)">a</text><text xml:space="preserve" font-family="Helvetica-Light" font-size="36.0" fill="#FEFFFF" transform="matrix(1.00, 0.00, -0.00, -1.00, 382.4, 103.0)">l</text><text xml:space="preserve" font-family="Helvetica-Light" font-size="36.0" fill="#FEFFFF" transform="matrix(1.00, 0.00, -0.00, -1.00, 390.4, 103.0)">a</text><text xml:space="preserve" font-family="Helvetica-Light" font-size="36.0" fill="#FEFFFF" transform="matrix(1.00, 0.00, -0.00, -1.00, 410.4, 103.0)">m</text><text xml:space="preserve" font-family="Helvetica-Light" font-size="36.0" fill="#FEFFFF" transform="matrix(1.00, 0.00, -0.00, -1.00, 440.4, 103.0)">a</text><text xml:space="preserve" font-family="Helvetica-Light" font-size="36.0" fill="#FEFFFF" transform="matrix(1.00, 0.00, -0.00, -1.00, 460.4, 103.0)">n</text><text xml:space="preserve" font-family="Helvetica-Light" font-size="36.0" fill="#FEFFFF" transform="matrix(1.00, 0.00, -0.00, -1.00, 480.4, 103.0)">d</text><text xml:space="preserve" font-family="Helvetica-Light" font-size="36.0" fill="#FEFFFF" transform="matrix(1.00, 0.00, -0.00, -1.00, 502.4, 103.0)">e</text><text xml:space="preserve" font-family="Helvetica-Light" font-size="36.0" fill="#FEFFFF" transform="matrix(1.00, 0.00, -0.00, -1.00, 522.4, 103.0)">r</text><text xml:space="preserve" font-family="Helvetica-Light" font-size="36.0" fill="#FEFFFF" transform="matrix(1.00, 0.00, -0.00, -1.00, 531.1, 103.0)">,</text><text xml:space="preserve" font-family="Helvetica-Light" font-size="36.0" fill="#FEFFFF" transform="matrix(1.00, 0.00, -0.00, -1.00, 541.1, 103.0)"> </text><text xml:space="preserve" font-family="Helvetica-Light" font-size="36.0" fill="#FEFFFF" transform="matrix(1.00, 0.00, -0.00, -1.00, 551.1, 103.0)">H</text><text xml:space="preserve" font-family="Helvetica-Light" font-size="36.0" fill="#FEFFFF" transform="matrix(1.00, 0.00, -0.00, -1.00, 577.1, 103.0)">i</text><text xml:space="preserve" font-family="Helvetica-Light" font-size="36.0" fill="#FEFFFF" transform="matrix(1.00, 0.00, -0.00, -1.00, 585.1, 103.0)">n</text><text xml:space="preserve" font-family="Helvetica-Light" font-size="36.0" fill="#FEFFFF" transform="matrix(1.00, 0.00, -0.00, -1.00, 605.1, 103.0)">c</text><text xml:space="preserve" font-family="Helvetica-Light" font-size="36.0" fill="#FEFFFF" transform="matrix(1.00, 0.00, -0.00, -1.00, 625.1, 103.0)">k</text><text xml:space="preserve" font-family="Helvetica-Light" font-size="36.0" fill="#FEFFFF" transform="matrix(1.00, 0.00, -0.00, -1.00, 643.1, 103.0)">l</text><text xml:space="preserve" font-family="Helvetica-Light" font-size="36.0" fill="#FEFFFF" transform="matrix(1.00, 0.00, -0.00, -1.00, 651.1, 103.0)">e</text><text xml:space="preserve" font-family="Helvetica-Light" font-size="36.0" fill="#FEFFFF" transform="matrix(1.00, 0.00, -0.00, -1.00, 671.1, 103.0)">y</text><text xml:space="preserve" font-family="Helvetica-Light" font-size="36.0" fill="#FEFFFF" transform="matrix(1.00, 0.00, -0.00, -1.00, 689.1, 103.0)"> </text><text xml:space="preserve" font-family="Helvetica-Light" font-size="36.0" fill="#FEFFFF" transform="matrix(1.00, 0.00, -0.00, -1.00, 699.2, 103.0)">R</text><text xml:space="preserve" font-family="Helvetica-Light" font-size="36.0" fill="#FEFFFF" transform="matrix(1.00, 0.00, -0.00, -1.00, 723.2, 103.0)">e</text><text xml:space="preserve" font-family="Helvetica-Light" font-size="36.0" fill="#FEFFFF" transform="matrix(1.00, 0.00, -0.00, -1.00, 743.2, 103.0)">s</text><text xml:space="preserve" font-family="Helvetica-Light" font-size="36.0" fill="#FEFFFF" transform="matrix(1.00, 0.00, -0.00, -1.00, 761.2, 103.0)">e</text><text xml:space="preserve" font-family="Helvetica-Light" font-size="36.0" fill="#FEFFFF" transform="matrix(1.00, 0.00, -0.00, -1.00, 781.2, 103.0)">r</text><text xml:space="preserve" font-family="Helvetica-Light" font-size="36.0" fill="#FEFFFF" transform="matrix(1.00, 0.00, -0.00, -1.00, 793.2, 103.0)">v</text><text xml:space="preserve" font-family="Helvetica-Light" font-size="36.0" fill="#FEFFFF" transform="matrix(1.00, 0.00, -0.00, -1.00, 811.2, 103.0)">a</text><text xml:space="preserve" font-family="Helvetica-Light" font-size="36.0" fill="#FEFFFF" transform="matrix(1.00, 0.00, -0.00, -1.00, 831.2, 103.0)">t</text><text xml:space="preserve" font-family="Helvetica-Light" font-size="36.0" fill="#FEFFFF" transform="matrix(1.00, 0.00, -0.00, -1.00, 841.2, 103.0)">i</text><text xml:space="preserve" font-family="Helvetica-Light" font-size="36.0" fill="#FEFFFF" transform="matrix(1.00, 0.00, -0.00, -1.00, 849.2, 103.0)">o</text><text xml:space="preserve" font-family="Helvetica-Light" font-size="36.0" fill="#FEFFFF" transform="matrix(1.00, 0.00, -0.00, -1.00, 869.2, 103.0)">n</text><text xml:space="preserve" font-family="Helvetica-Light" font-size="36.0" fill="#FEFFFF" transform="matrix(1.00, 0.00, -0.00, -1.00, 889.2, 103.0)"> </text><image xlink:href="../../2B651D39-1A0F-46D3-BC47-629397605899/assets/B3AEEC43AA686D80D4B4AF2306245AAB.png" width="406.00" height="37.00" transform="matrix(1.00, 0.00, -0.00, -1.00, 302.0, 89.0)"></image><text xml:space="preserve" font-family="Helvetica-LightOblique" font-style="italic" font-size="36.0" fill="#FEFFFF" transform="matrix(1.00, 0.00, -0.00, -1.00, 305.0, 60.0)">P</text><text xml:space="preserve" font-family="Helvetica-LightOblique" font-style="italic" font-size="36.0" fill="#FEFFFF" transform="matrix(1.00, 0.00, -0.00, -1.00, 327.0, 60.0)">s</text><text xml:space="preserve" font-family="Helvetica-LightOblique" font-style="italic" font-size="36.0" fill="#FEFFFF" transform="matrix(1.00, 0.00, -0.00, -1.00, 345.0, 60.0)">e</text><text xml:space="preserve" font-family="Helvetica-LightOblique" font-style="italic" font-size="36.0" fill="#FEFFFF" transform="matrix(1.00, 0.00, -0.00, -1.00, 365.0, 60.0)">u</text><text xml:space="preserve" font-family="Helvetica-LightOblique" font-style="italic" font-size="36.0" fill="#FEFFFF" transform="matrix(1.00, 0.00, -0.00, -1.00, 385.0, 60.0)">d</text><text xml:space="preserve" font-family="Helvetica-LightOblique" font-style="italic" font-size="36.0" fill="#FEFFFF" transform="matrix(1.00, 0.00, -0.00, -1.00, 407.0, 60.0)">o</text><text xml:space="preserve" font-family="Helvetica-LightOblique" font-style="italic" font-size="36.0" fill="#FEFFFF" transform="matrix(1.00, 0.00, -0.00, -1.00, 427.0, 60.0)">t</text><text xml:space="preserve" font-family="Helvetica-LightOblique" font-style="italic" font-size="36.0" fill="#FEFFFF" transform="matrix(1.00, 0.00, -0.00, -1.00, 437.0, 60.0)">r</text><text xml:space="preserve" font-family="Helvetica-LightOblique" font-style="italic" font-size="36.0" fill="#FEFFFF" transform="matrix(1.00, 0.00, -0.00, -1.00, 449.0, 60.0)">i</text><text xml:space="preserve" font-family="Helvetica-LightOblique" font-style="italic" font-size="36.0" fill="#FEFFFF" transform="matrix(1.00, 0.00, -0.00, -1.00, 457.0, 60.0)">t</text><text xml:space="preserve" font-family="Helvetica-LightOblique" font-style="italic" font-size="36.0" fill="#FEFFFF" transform="matrix(1.00, 0.00, -0.00, -1.00, 467.0, 60.0)">o</text><text xml:space="preserve" font-family="Helvetica-LightOblique" font-style="italic" font-size="36.0" fill="#FEFFFF" transform="matrix(1.00, 0.00, -0.00, -1.00, 487.1, 60.0)">n</text><text xml:space="preserve" font-family="Helvetica-LightOblique" font-style="italic" font-size="36.0" fill="#FEFFFF" transform="matrix(1.00, 0.00, -0.00, -1.00, 507.1, 60.0)"> </text><text xml:space="preserve" font-family="Helvetica-LightOblique" font-style="italic" font-size="36.0" fill="#FEFFFF" transform="matrix(1.00, 0.00, -0.00, -1.00, 517.1, 60.0)">r</text><text xml:space="preserve" font-family="Helvetica-LightOblique" font-style="italic" font-size="36.0" fill="#FEFFFF" transform="matrix(1.00, 0.00, -0.00, -1.00, 529.1, 60.0)">u</text><text xml:space="preserve" font-family="Helvetica-LightOblique" font-style="italic" font-size="36.0" fill="#FEFFFF" transform="matrix(1.00, 0.00, -0.00, -1.00, 549.1, 60.0)">b</text><text xml:space="preserve" font-family="Helvetica-LightOblique" font-style="italic" font-size="36.0" fill="#FEFFFF" transform="matrix(1.00, 0.00, -0.00, -1.00, 571.1, 60.0)">e</text><text xml:space="preserve" font-family="Helvetica-LightOblique" font-style="italic" font-size="36.0" fill="#FEFFFF" transform="matrix(1.00, 0.00, -0.00, -1.00, 591.1, 60.0)">r</text><text xml:space="preserve" font-family="Helvetica-LightOblique" font-style="italic" font-size="36.0" fill="#FEFFFF" transform="matrix(1.00, 0.00, -0.00, -1.00, 603.1, 60.0)"> </text><text xml:space="preserve" font-family="Helvetica-LightOblique" font-style="italic" font-size="36.0" fill="#FEFFFF" transform="matrix(1.00, 0.00, -0.00, -1.00, 613.1, 60.0)">r</text><text xml:space="preserve" font-family="Helvetica-LightOblique" font-style="italic" font-size="36.0" fill="#FEFFFF" transform="matrix(1.00, 0.00, -0.00, -1.00, 625.1, 60.0)">u</text><text xml:space="preserve" font-family="Helvetica-LightOblique" font-style="italic" font-size="36.0" fill="#FEFFFF" transform="matrix(1.00, 0.00, -0.00, -1.00, 645.1, 60.0)">b</text><text xml:space="preserve" font-family="Helvetica-LightOblique" font-style="italic" font-size="36.0" fill="#FEFFFF" transform="matrix(1.00, 0.00, -0.00, -1.00, 667.1, 60.0)">e</text><text xml:space="preserve" font-family="Helvetica-LightOblique" font-style="italic" font-size="36.0" fill="#FEFFFF" transform="matrix(1.00, 0.00, -0.00, -1.00, 687.1, 60.0)">r</text><text xml:space="preserve" font-family="Helvetica" font-size="17.0" fill="#DCDDE0" transform="matrix(1.00, 0.00, -0.00, -1.00, 352.0, 29.0)">c</text><text xml:space="preserve" font-family="Helvetica" font-size="17.0" fill="#DCDDE0" transform="matrix(1.00, 0.00, -0.00, -1.00, 360.5, 29.0)">r</text><text xml:space="preserve" font-family="Helvetica" font-size="17.0" fill="#DCDDE0" transform="matrix(1.00, 0.00, -0.00, -1.00, 366.2, 29.0)">e</text><text xml:space="preserve" font-family="Helvetica" font-size="17.0" fill="#DCDDE0" transform="matrix(1.00, 0.00, -0.00, -1.00, 375.6, 29.0)">d</text><text xml:space="preserve" font-family="Helvetica" font-size="17.0" fill="#DCDDE0" transform="matrix(1.00, 0.00, -0.00, -1.00, 385.1, 29.0)">i</text><text xml:space="preserve" font-family="Helvetica" font-size="17.0" fill="#DCDDE0" transform="matrix(1.00, 0.00, -0.00, -1.00, 388.9, 29.0)">t</text><text xml:space="preserve" font-family="Helvetica" font-size="17.0" fill="#DCDDE0" transform="matrix(1.00, 0.00, -0.00, -1.00, 393.6, 29.0)">:</text><text xml:space="preserve" font-family="Helvetica" font-size="17.0" fill="#DCDDE0" transform="matrix(1.00, 0.00, -0.00, -1.00, 398.3, 29.0)"> </text><text xml:space="preserve" font-family="Helvetica" font-size="17.0" fill="#DCDDE0" transform="matrix(1.00, 0.00, -0.00, -1.00, 402.7, 29.0)">T</text><text xml:space="preserve" font-family="Helvetica" font-size="17.0" fill="#DCDDE0" transform="matrix(1.00, 0.00, -0.00, -1.00, 412.5, 29.0)">i</text><text xml:space="preserve" font-family="Helvetica" font-size="17.0" fill="#DCDDE0" transform="matrix(1.00, 0.00, -0.00, -1.00, 416.3, 29.0)">m</text><text xml:space="preserve" font-family="Helvetica" font-size="17.0" fill="#DCDDE0" transform="matrix(1.00, 0.00, -0.00, -1.00, 430.4, 29.0)"> </text><text xml:space="preserve" font-family="Helvetica" font-size="17.0" fill="#DCDDE0" transform="matrix(1.00, 0.00, -0.00, -1.00, 435.1, 29.0)">K</text><text xml:space="preserve" font-family="Helvetica" font-size="17.0" fill="#DCDDE0" transform="matrix(1.00, 0.00, -0.00, -1.00, 446.5, 29.0)">r</text><text xml:space="preserve" font-family="Helvetica" font-size="17.0" fill="#DCDDE0" transform="matrix(1.00, 0.00, -0.00, -1.00, 452.1, 29.0)">y</text><text xml:space="preserve" font-family="Helvetica" font-size="17.0" fill="#DCDDE0" transform="matrix(1.00, 0.00, -0.00, -1.00, 460.6, 29.0)">n</text><text xml:space="preserve" font-family="Helvetica" font-size="17.0" fill="#DCDDE0" transform="matrix(1.00, 0.00, -0.00, -1.00, 470.1, 29.0)">a</text><text xml:space="preserve" font-family="Helvetica" font-size="17.0" fill="#DCDDE0" transform="matrix(1.00, 0.00, -0.00, -1.00, 479.6, 29.0)">k</text><text xml:space="preserve" font-family="Helvetica" font-size="17.0" fill="#DCDDE0" transform="matrix(1.00, 0.00, -0.00, -1.00, 488.1, 29.0)">,</text><text xml:space="preserve" font-family="Helvetica" font-size="17.0" fill="#DCDDE0" transform="matrix(1.00, 0.00, -0.00, -1.00, 492.8, 29.0)"> </text><text xml:space="preserve" font-family="Helvetica" font-size="17.0" fill="#DCDDE0" transform="matrix(1.00, 0.00, -0.00, -1.00, 497.5, 29.0)">C</text><text xml:space="preserve" font-family="Helvetica" font-size="17.0" fill="#DCDDE0" transform="matrix(1.00, 0.00, -0.00, -1.00, 509.8, 29.0)">l</text><text xml:space="preserve" font-family="Helvetica" font-size="17.0" fill="#DCDDE0" transform="matrix(1.00, 0.00, -0.00, -1.00, 513.6, 29.0)">e</text><text xml:space="preserve" font-family="Helvetica" font-size="17.0" fill="#DCDDE0" transform="matrix(1.00, 0.00, -0.00, -1.00, 523.0, 29.0)">v</text><text xml:space="preserve" font-family="Helvetica" font-size="17.0" fill="#DCDDE0" transform="matrix(1.00, 0.00, -0.00, -1.00, 531.5, 29.0)">e</text><text xml:space="preserve" font-family="Helvetica" font-size="17.0" fill="#DCDDE0" transform="matrix(1.00, 0.00, -0.00, -1.00, 541.0, 29.0)">l</text><text xml:space="preserve" font-family="Helvetica" font-size="17.0" fill="#DCDDE0" transform="matrix(1.00, 0.00, -0.00, -1.00, 544.8, 29.0)">a</text><text xml:space="preserve" font-family="Helvetica" font-size="17.0" fill="#DCDDE0" transform="matrix(1.00, 0.00, -0.00, -1.00, 554.2, 29.0)">n</text><text xml:space="preserve" font-family="Helvetica" font-size="17.0" fill="#DCDDE0" transform="matrix(1.00, 0.00, -0.00, -1.00, 563.7, 29.0)">d</text><text xml:space="preserve" font-family="Helvetica" font-size="17.0" fill="#DCDDE0" transform="matrix(1.00, 0.00, -0.00, -1.00, 573.1, 29.0)"> </text><text xml:space="preserve" font-family="Helvetica" font-size="17.0" fill="#DCDDE0" transform="matrix(1.00, 0.00, -0.00, -1.00, 577.8, 29.0)">M</text><text xml:space="preserve" font-family="Helvetica" font-size="17.0" fill="#DCDDE0" transform="matrix(1.00, 0.00, -0.00, -1.00, 592.0, 29.0)">e</text><text xml:space="preserve" font-family="Helvetica" font-size="17.0" fill="#DCDDE0" transform="matrix(1.00, 0.00, -0.00, -1.00, 601.5, 29.0)">t</text><text xml:space="preserve" font-family="Helvetica" font-size="17.0" fill="#DCDDE0" transform="matrix(1.00, 0.00, -0.00, -1.00, 606.2, 29.0)">r</text><text xml:space="preserve" font-family="Helvetica" font-size="17.0" fill="#DCDDE0" transform="matrix(1.00, 0.00, -0.00, -1.00, 611.8, 29.0)">o</text><text xml:space="preserve" font-family="Helvetica" font-size="17.0" fill="#DCDDE0" transform="matrix(1.00, 0.00, -0.00, -1.00, 621.3, 29.0)">p</text><text xml:space="preserve" font-family="Helvetica" font-size="17.0" fill="#DCDDE0" transform="matrix(1.00, 0.00, -0.00, -1.00, 630.8, 29.0)">a</text><text xml:space="preserve" font-family="Helvetica" font-size="17.0" fill="#DCDDE0" transform="matrix(1.00, 0.00, -0.00, -1.00, 640.2, 29.0)">r</text><text xml:space="preserve" font-family="Helvetica" font-size="17.0" fill="#DCDDE0" transform="matrix(1.00, 0.00, -0.00, -1.00, 645.9, 29.0)">k</text><text xml:space="preserve" font-family="Helvetica" font-size="17.0" fill="#DCDDE0" transform="matrix(1.00, 0.00, -0.00, -1.00, 654.4, 29.0)">s</text></g></svg>