<?xml version="1.0" encoding="UTF-8" standalone="no"?><svg xmlns="http://www.w3.org/2000/svg" xmlns:xlink="http://www.w3.org/1999/xlink" clip-rule="evenodd" stroke-miterlimit="4.00" viewBox="0 0 1024 768"><desc>SVG generated by Keynote</desc><defs></defs><g transform="matrix(1.00, 0.00, -0.00, -1.00, 0.0, 768.0)"><path d="M 0.0 768.0 L 1024.0 768.0 L 1024.0 0.0 L 0.0 0.0 Z M 0.0 768.0 " fill="#000000"></path><text xml:space="preserve" font-family="Helvetica-Light" font-size="67.2" fill="#FEFFFF" transform="matrix(1.00, 0.00, -0.00, -1.00, 152.0, 678.0)">A</text><text xml:space="preserve" font-family="Helvetica-Light" font-size="67.2" fill="#FEFFFF" transform="matrix(1.00, 0.00, -0.00, -1.00, 196.8, 678.0)">s</text><text xml:space="preserve" font-family="Helvetica-Light" font-size="67.2" fill="#FEFFFF" transform="matrix(1.00, 0.00, -0.00, -1.00, 230.4, 678.0)">s</text><text xml:space="preserve" font-family="Helvetica-Light" font-size="67.2" fill="#FEFFFF" transform="matrix(1.00, 0.00, -0.00, -1.00, 264.0, 678.0)">e</text><text xml:space="preserve" font-family="Helvetica-Light" font-size="67.2" fill="#FEFFFF" transform="matrix(1.00, 0.00, -0.00, -1.00, 301.4, 678.0)">s</text><text xml:space="preserve" font-family="Helvetica-Light" font-size="67.2" fill="#FEFFFF" transform="matrix(1.00, 0.00, -0.00, -1.00, 335.0, 678.0)">s</text><text xml:space="preserve" font-family="Helvetica-Light" font-size="67.2" fill="#FEFFFF" transform="matrix(1.00, 0.00, -0.00, -1.00, 368.6, 678.0)">m</text><text xml:space="preserve" font-family="Helvetica-Light" font-size="67.2" fill="#FEFFFF" transform="matrix(1.00, 0.00, -0.00, -1.00, 424.6, 678.0)">e</text><text xml:space="preserve" font-family="Helvetica-Light" font-size="67.2" fill="#FEFFFF" transform="matrix(1.00, 0.00, -0.00, -1.00, 461.9, 678.0)">n</text><text xml:space="preserve" font-family="Helvetica-Light" font-size="67.2" fill="#FEFFFF" transform="matrix(1.00, 0.00, -0.00, -1.00, 499.3, 678.0)">t</text><text xml:space="preserve" font-family="Helvetica-Light" font-size="67.2" fill="#FEFFFF" transform="matrix(1.00, 0.00, -0.00, -1.00, 518.0, 678.0)">s</text><text xml:space="preserve" font-family="Helvetica-Light" font-size="67.2" fill="#FEFFFF" transform="matrix(1.00, 0.00, -0.00, -1.00, 551.6, 678.0)"> </text><text xml:space="preserve" font-family="Helvetica-Light" font-size="67.2" fill="#FEFFFF" transform="matrix(1.00, 0.00, -0.00, -1.00, 570.3, 678.0)">/</text><text xml:space="preserve" font-family="Helvetica-Light" font-size="67.2" fill="#FEFFFF" transform="matrix(1.00, 0.00, -0.00, -1.00, 588.9, 678.0)"> </text><text xml:space="preserve" font-family="Helvetica-Light" font-size="67.2" fill="#FEFFFF" transform="matrix(1.00, 0.00, -0.00, -1.00, 607.6, 678.0)">D</text><text xml:space="preserve" font-family="Helvetica-Light" font-size="67.2" fill="#FEFFFF" transform="matrix(1.00, 0.00, -0.00, -1.00, 656.1, 678.0)">a</text><text xml:space="preserve" font-family="Helvetica-Light" font-size="67.2" fill="#FEFFFF" transform="matrix(1.00, 0.00, -0.00, -1.00, 693.5, 678.0)">t</text><text xml:space="preserve" font-family="Helvetica-Light" font-size="67.2" fill="#FEFFFF" transform="matrix(1.00, 0.00, -0.00, -1.00, 712.2, 678.0)">a</text><text xml:space="preserve" font-family="Helvetica-Light" font-size="67.2" fill="#FEFFFF" transform="matrix(1.00, 0.00, -0.00, -1.00, 749.5, 678.0)">s</text><text xml:space="preserve" font-family="Helvetica-Light" font-size="67.2" fill="#FEFFFF" transform="matrix(1.00, 0.00, -0.00, -1.00, 783.1, 678.0)">e</text><text xml:space="preserve" font-family="Helvetica-Light" font-size="67.2" fill="#FEFFFF" transform="matrix(1.00, 0.00, -0.00, -1.00, 820.5, 678.0)">t</text><text xml:space="preserve" font-family="Helvetica-Light" font-size="67.2" fill="#FEFFFF" transform="matrix(1.00, 0.00, -0.00, -1.00, 839.2, 678.0)">s</text><text xml:space="preserve" font-family="Helvetica-Light" font-size="67.2" fill="#FEFFFF" transform="matrix(1.00, 0.00, -0.00, -1.00, 872.8, 678.0)"> </text><text xml:space="preserve" font-family="Helvetica-Light" font-size="67.2" fill="#FEFFFF" transform="matrix(1.00, 0.00, -0.00, -1.00, 206.0, 598.0)">c</text><text xml:space="preserve" font-family="Helvetica-Light" font-size="67.2" fill="#FEFFFF" transform="matrix(1.00, 0.00, -0.00, -1.00, 243.4, 598.0)">u</text><text xml:space="preserve" font-family="Helvetica-Light" font-size="67.2" fill="#FEFFFF" transform="matrix(1.00, 0.00, -0.00, -1.00, 280.7, 598.0)">r</text><text xml:space="preserve" font-family="Helvetica-Light" font-size="67.2" fill="#FEFFFF" transform="matrix(1.00, 0.00, -0.00, -1.00, 303.1, 598.0)">r</text><text xml:space="preserve" font-family="Helvetica-Light" font-size="67.2" fill="#FEFFFF" transform="matrix(1.00, 0.00, -0.00, -1.00, 324.3, 598.0)">e</text><text xml:space="preserve" font-family="Helvetica-Light" font-size="67.2" fill="#FEFFFF" transform="matrix(1.00, 0.00, -0.00, -1.00, 361.6, 598.0)">n</text><text xml:space="preserve" font-family="Helvetica-Light" font-size="67.2" fill="#FEFFFF" transform="matrix(1.00, 0.00, -0.00, -1.00, 399.0, 598.0)">t</text><text xml:space="preserve" font-family="Helvetica-Light" font-size="67.2" fill="#FEFFFF" transform="matrix(1.00, 0.00, -0.00, -1.00, 417.7, 598.0)">l</text><text xml:space="preserve" font-family="Helvetica-Light" font-size="67.2" fill="#FEFFFF" transform="matrix(1.00, 0.00, -0.00, -1.00, 432.6, 598.0)">y</text><text xml:space="preserve" font-family="Helvetica-Light" font-size="67.2" fill="#FEFFFF" transform="matrix(1.00, 0.00, -0.00, -1.00, 466.2, 598.0)"> </text><text xml:space="preserve" font-family="Helvetica-Light" font-size="67.2" fill="#FEFFFF" transform="matrix(1.00, 0.00, -0.00, -1.00, 484.9, 598.0)">M</text><text xml:space="preserve" font-family="Helvetica-Light" font-size="67.2" fill="#FEFFFF" transform="matrix(1.00, 0.00, -0.00, -1.00, 540.9, 598.0)">a</text><text xml:space="preserve" font-family="Helvetica-Light" font-size="67.2" fill="#FEFFFF" transform="matrix(1.00, 0.00, -0.00, -1.00, 578.2, 598.0)">i</text><text xml:space="preserve" font-family="Helvetica-Light" font-size="67.2" fill="#FEFFFF" transform="matrix(1.00, 0.00, -0.00, -1.00, 593.1, 598.0)">n</text><text xml:space="preserve" font-family="Helvetica-Light" font-size="67.2" fill="#FEFFFF" transform="matrix(1.00, 0.00, -0.00, -1.00, 630.5, 598.0)">t</text><text xml:space="preserve" font-family="Helvetica-Light" font-size="67.2" fill="#FEFFFF" transform="matrix(1.00, 0.00, -0.00, -1.00, 649.2, 598.0)">a</text><text xml:space="preserve" font-family="Helvetica-Light" font-size="67.2" fill="#FEFFFF" transform="matrix(1.00, 0.00, -0.00, -1.00, 686.5, 598.0)">i</text><text xml:space="preserve" font-family="Helvetica-Light" font-size="67.2" fill="#FEFFFF" transform="matrix(1.00, 0.00, -0.00, -1.00, 701.5, 598.0)">n</text><text xml:space="preserve" font-family="Helvetica-Light" font-size="67.2" fill="#FEFFFF" transform="matrix(1.00, 0.00, -0.00, -1.00, 738.8, 598.0)">e</text><text xml:space="preserve" font-family="Helvetica-Light" font-size="67.2" fill="#FEFFFF" transform="matrix(1.00, 0.00, -0.00, -1.00, 776.2, 598.0)">d</text><text xml:space="preserve" font-family="Helvetica-Light" font-size="24.2" fill="#FEFFFF" transform="matrix(1.00, 0.00, -0.00, -1.00, 79.0, 525.6)">•</text><text xml:space="preserve" font-family="Helvetica-Light" font-size="32.3" fill="#FEFFFF" transform="matrix(1.00, 0.00, -0.00, -1.00, 109.0, 523.0)">V</text><text xml:space="preserve" font-family="Helvetica-Light" font-size="32.3" fill="#FEFFFF" transform="matrix(1.00, 0.00, -0.00, -1.00, 127.0, 523.0)">e</text><text xml:space="preserve" font-family="Helvetica-Light" font-size="32.3" fill="#FEFFFF" transform="matrix(1.00, 0.00, -0.00, -1.00, 144.9, 523.0)">g</text><text xml:space="preserve" font-family="Helvetica-Light" font-size="32.3" fill="#FEFFFF" transform="matrix(1.00, 0.00, -0.00, -1.00, 164.7, 523.0)">e</text><text xml:space="preserve" font-family="Helvetica-Light" font-size="32.3" fill="#FEFFFF" transform="matrix(1.00, 0.00, -0.00, -1.00, 182.6, 523.0)">t</text><text xml:space="preserve" font-family="Helvetica-Light" font-size="32.3" fill="#FEFFFF" transform="matrix(1.00, 0.00, -0.00, -1.00, 191.6, 523.0)">a</text><text xml:space="preserve" font-family="Helvetica-Light" font-size="32.3" fill="#FEFFFF" transform="matrix(1.00, 0.00, -0.00, -1.00, 209.5, 523.0)">t</text><text xml:space="preserve" font-family="Helvetica-Light" font-size="32.3" fill="#FEFFFF" transform="matrix(1.00, 0.00, -0.00, -1.00, 218.5, 523.0)">i</text><text xml:space="preserve" font-family="Helvetica-Light" font-size="32.3" fill="#FEFFFF" transform="matrix(1.00, 0.00, -0.00, -1.00, 225.7, 523.0)">o</text><text xml:space="preserve" font-family="Helvetica-Light" font-size="32.3" fill="#FEFFFF" transform="matrix(1.00, 0.00, -0.00, -1.00, 243.7, 523.0)">n</text><text xml:space="preserve" font-family="Helvetica-Light" font-size="32.3" fill="#FEFFFF" transform="matrix(1.00, 0.00, -0.00, -1.00, 261.6, 523.0)"> </text><text xml:space="preserve" font-family="Helvetica-Light" font-size="32.3" fill="#FEFFFF" transform="matrix(1.00, 0.00, -0.00, -1.00, 270.6, 523.0)">I</text><text xml:space="preserve" font-family="Helvetica-Light" font-size="32.3" fill="#FEFFFF" transform="matrix(1.00, 0.00, -0.00, -1.00, 279.6, 523.0)">n</text><text xml:space="preserve" font-family="Helvetica-Light" font-size="32.3" fill="#FEFFFF" transform="matrix(1.00, 0.00, -0.00, -1.00, 297.5, 523.0)">d</text><text xml:space="preserve" font-family="Helvetica-Light" font-size="32.3" fill="#FEFFFF" transform="matrix(1.00, 0.00, -0.00, -1.00, 317.3, 523.0)">e</text><text xml:space="preserve" font-family="Helvetica-Light" font-size="32.3" fill="#FEFFFF" transform="matrix(1.00, 0.00, -0.00, -1.00, 335.2, 523.0)">x</text><text xml:space="preserve" font-family="Helvetica-Light" font-size="32.3" fill="#FEFFFF" transform="matrix(1.00, 0.00, -0.00, -1.00, 351.4, 523.0)"> </text><text xml:space="preserve" font-family="Helvetica-Light" font-size="32.3" fill="#FEFFFF" transform="matrix(1.00, 0.00, -0.00, -1.00, 360.4, 523.0)">o</text><text xml:space="preserve" font-family="Helvetica-Light" font-size="32.3" fill="#FEFFFF" transform="matrix(1.00, 0.00, -0.00, -1.00, 378.3, 523.0)">f</text><text xml:space="preserve" font-family="Helvetica-Light" font-size="32.3" fill="#FEFFFF" transform="matrix(1.00, 0.00, -0.00, -1.00, 387.3, 523.0)"> </text><text xml:space="preserve" font-family="Helvetica-Light" font-size="32.3" fill="#FEFFFF" transform="matrix(1.00, 0.00, -0.00, -1.00, 396.3, 523.0)">B</text><text xml:space="preserve" font-family="Helvetica-Light" font-size="32.3" fill="#FEFFFF" transform="matrix(1.00, 0.00, -0.00, -1.00, 417.8, 523.0)">i</text><text xml:space="preserve" font-family="Helvetica-Light" font-size="32.3" fill="#FEFFFF" transform="matrix(1.00, 0.00, -0.00, -1.00, 425.0, 523.0)">o</text><text xml:space="preserve" font-family="Helvetica-Light" font-size="32.3" fill="#FEFFFF" transform="matrix(1.00, 0.00, -0.00, -1.00, 442.9, 523.0)">t</text><text xml:space="preserve" font-family="Helvetica-Light" font-size="32.3" fill="#FEFFFF" transform="matrix(1.00, 0.00, -0.00, -1.00, 451.9, 523.0)">i</text><text xml:space="preserve" font-family="Helvetica-Light" font-size="32.3" fill="#FEFFFF" transform="matrix(1.00, 0.00, -0.00, -1.00, 459.1, 523.0)">c</text><text xml:space="preserve" font-family="Helvetica-Light" font-size="32.3" fill="#FEFFFF" transform="matrix(1.00, 0.00, -0.00, -1.00, 477.1, 523.0)"> </text><text xml:space="preserve" font-family="Helvetica-Light" font-size="32.3" fill="#FEFFFF" transform="matrix(1.00, 0.00, -0.00, -1.00, 486.0, 523.0)">I</text><text xml:space="preserve" font-family="Helvetica-Light" font-size="32.3" fill="#FEFFFF" transform="matrix(1.00, 0.00, -0.00, -1.00, 495.0, 523.0)">n</text><text xml:space="preserve" font-family="Helvetica-Light" font-size="32.3" fill="#FEFFFF" transform="matrix(1.00, 0.00, -0.00, -1.00, 513.0, 523.0)">t</text><text xml:space="preserve" font-family="Helvetica-Light" font-size="32.3" fill="#FEFFFF" transform="matrix(1.00, 0.00, -0.00, -1.00, 522.0, 523.0)">e</text><text xml:space="preserve" font-family="Helvetica-Light" font-size="32.3" fill="#FEFFFF" transform="matrix(1.00, 0.00, -0.00, -1.00, 539.9, 523.0)">g</text><text xml:space="preserve" font-family="Helvetica-Light" font-size="32.3" fill="#FEFFFF" transform="matrix(1.00, 0.00, -0.00, -1.00, 559.6, 523.0)">r</text><text xml:space="preserve" font-family="Helvetica-Light" font-size="32.3" fill="#FEFFFF" transform="matrix(1.00, 0.00, -0.00, -1.00, 570.4, 523.0)">i</text><text xml:space="preserve" font-family="Helvetica-Light" font-size="32.3" fill="#FEFFFF" transform="matrix(1.00, 0.00, -0.00, -1.00, 577.6, 523.0)">t</text><text xml:space="preserve" font-family="Helvetica-Light" font-size="32.3" fill="#FEFFFF" transform="matrix(1.00, 0.00, -0.00, -1.00, 586.6, 523.0)">y</text><text xml:space="preserve" font-family="Helvetica-Light" font-size="32.3" fill="#FEFFFF" transform="matrix(1.00, 0.00, -0.00, -1.00, 602.7, 523.0)"> </text><text xml:space="preserve" font-family="Helvetica-Light" font-size="24.2" fill="#FEFFFF" transform="matrix(1.00, 0.00, -0.00, -1.00, 79.0, 459.1)">•</text><text xml:space="preserve" font-family="Helvetica-Light" font-size="32.3" fill="#FEFFFF" transform="matrix(1.00, 0.00, -0.00, -1.00, 109.0, 457.0)">W</text><text xml:space="preserve" font-family="Helvetica-Light" font-size="32.3" fill="#FEFFFF" transform="matrix(1.00, 0.00, -0.00, -1.00, 137.1, 457.0)">e</text><text xml:space="preserve" font-family="Helvetica-Light" font-size="32.3" fill="#FEFFFF" transform="matrix(1.00, 0.00, -0.00, -1.00, 155.1, 457.0)">t</text><text xml:space="preserve" font-family="Helvetica-Light" font-size="32.3" fill="#FEFFFF" transform="matrix(1.00, 0.00, -0.00, -1.00, 164.1, 457.0)">l</text><text xml:space="preserve" font-family="Helvetica-Light" font-size="32.3" fill="#FEFFFF" transform="matrix(1.00, 0.00, -0.00, -1.00, 171.2, 457.0)">a</text><text xml:space="preserve" font-family="Helvetica-Light" font-size="32.3" fill="#FEFFFF" transform="matrix(1.00, 0.00, -0.00, -1.00, 189.2, 457.0)">n</text><text xml:space="preserve" font-family="Helvetica-Light" font-size="32.3" fill="#FEFFFF" transform="matrix(1.00, 0.00, -0.00, -1.00, 207.2, 457.0)">d</text><text xml:space="preserve" font-family="Helvetica-Light" font-size="32.3" fill="#FEFFFF" transform="matrix(1.00, 0.00, -0.00, -1.00, 226.9, 457.0)"> </text><text xml:space="preserve" font-family="Helvetica-Light" font-size="21.7" fill="#FEFFFF" transform="matrix(1.00, 0.00, -0.00, -1.00, 114.0, 425.2)">•</text><text xml:space="preserve" font-family="Helvetica-Light" font-size="28.9" fill="#FEFFFF" transform="matrix(1.00, 0.00, -0.00, -1.00, 141.0, 422.0)">C</text><text xml:space="preserve" font-family="Helvetica-Light" font-size="28.9" fill="#FEFFFF" transform="matrix(1.00, 0.00, -0.00, -1.00, 161.9, 422.0)">l</text><text xml:space="preserve" font-family="Helvetica-Light" font-size="28.9" fill="#FEFFFF" transform="matrix(1.00, 0.00, -0.00, -1.00, 168.3, 422.0)">a</text><text xml:space="preserve" font-family="Helvetica-Light" font-size="28.9" fill="#FEFFFF" transform="matrix(1.00, 0.00, -0.00, -1.00, 184.3, 422.0)">s</text><text xml:space="preserve" font-family="Helvetica-Light" font-size="28.9" fill="#FEFFFF" transform="matrix(1.00, 0.00, -0.00, -1.00, 198.8, 422.0)">s</text><text xml:space="preserve" font-family="Helvetica-Light" font-size="28.9" fill="#FEFFFF" transform="matrix(1.00, 0.00, -0.00, -1.00, 213.2, 422.0)">i</text><text xml:space="preserve" font-family="Helvetica-Light" font-size="28.9" fill="#FEFFFF" transform="matrix(1.00, 0.00, -0.00, -1.00, 219.7, 422.0)">ﬁ</text><text xml:space="preserve" font-family="Helvetica-Light" font-size="28.9" fill="#FEFFFF" transform="matrix(1.00, 0.00, -0.00, -1.00, 234.1, 422.0)">c</text><text xml:space="preserve" font-family="Helvetica-Light" font-size="28.9" fill="#FEFFFF" transform="matrix(1.00, 0.00, -0.00, -1.00, 250.2, 422.0)">a</text><text xml:space="preserve" font-family="Helvetica-Light" font-size="28.9" fill="#FEFFFF" transform="matrix(1.00, 0.00, -0.00, -1.00, 266.3, 422.0)">t</text><text xml:space="preserve" font-family="Helvetica-Light" font-size="28.9" fill="#FEFFFF" transform="matrix(1.00, 0.00, -0.00, -1.00, 274.3, 422.0)">i</text><text xml:space="preserve" font-family="Helvetica-Light" font-size="28.9" fill="#FEFFFF" transform="matrix(1.00, 0.00, -0.00, -1.00, 280.7, 422.0)">o</text><text xml:space="preserve" font-family="Helvetica-Light" font-size="28.9" fill="#FEFFFF" transform="matrix(1.00, 0.00, -0.00, -1.00, 296.8, 422.0)">n</text><text xml:space="preserve" font-family="Helvetica-Light" font-size="28.9" fill="#FEFFFF" transform="matrix(1.00, 0.00, -0.00, -1.00, 312.8, 422.0)"> </text><text xml:space="preserve" font-family="Helvetica-Light" font-size="21.7" fill="#FEFFFF" transform="matrix(1.00, 0.00, -0.00, -1.00, 114.0, 390.8)">•</text><text xml:space="preserve" font-family="Helvetica-Light" font-size="28.9" fill="#FEFFFF" transform="matrix(1.00, 0.00, -0.00, -1.00, 141.0, 388.0)">U</text><text xml:space="preserve" font-family="Helvetica-Light" font-size="28.9" fill="#FEFFFF" transform="matrix(1.00, 0.00, -0.00, -1.00, 161.9, 388.0)">n</text><text xml:space="preserve" font-family="Helvetica-Light" font-size="28.9" fill="#FEFFFF" transform="matrix(1.00, 0.00, -0.00, -1.00, 177.9, 388.0)">m</text><text xml:space="preserve" font-family="Helvetica-Light" font-size="28.9" fill="#FEFFFF" transform="matrix(1.00, 0.00, -0.00, -1.00, 202.0, 388.0)">a</text><text xml:space="preserve" font-family="Helvetica-Light" font-size="28.9" fill="#FEFFFF" transform="matrix(1.00, 0.00, -0.00, -1.00, 218.1, 388.0)">p</text><text xml:space="preserve" font-family="Helvetica-Light" font-size="28.9" fill="#FEFFFF" transform="matrix(1.00, 0.00, -0.00, -1.00, 235.7, 388.0)">p</text><text xml:space="preserve" font-family="Helvetica-Light" font-size="28.9" fill="#FEFFFF" transform="matrix(1.00, 0.00, -0.00, -1.00, 253.4, 388.0)">e</text><text xml:space="preserve" font-family="Helvetica-Light" font-size="28.9" fill="#FEFFFF" transform="matrix(1.00, 0.00, -0.00, -1.00, 269.5, 388.0)">d</text><text xml:space="preserve" font-family="Helvetica-Light" font-size="28.9" fill="#FEFFFF" transform="matrix(1.00, 0.00, -0.00, -1.00, 287.1, 388.0)"> </text><text xml:space="preserve" font-family="Helvetica-Light" font-size="28.9" fill="#FEFFFF" transform="matrix(1.00, 0.00, -0.00, -1.00, 295.2, 388.0)">o</text><text xml:space="preserve" font-family="Helvetica-Light" font-size="28.9" fill="#FEFFFF" transform="matrix(1.00, 0.00, -0.00, -1.00, 311.2, 388.0)">b</text><text xml:space="preserve" font-family="Helvetica-Light" font-size="28.9" fill="#FEFFFF" transform="matrix(1.00, 0.00, -0.00, -1.00, 328.9, 388.0)">s</text><text xml:space="preserve" font-family="Helvetica-Light" font-size="28.9" fill="#FEFFFF" transform="matrix(1.00, 0.00, -0.00, -1.00, 343.3, 388.0)">e</text><text xml:space="preserve" font-family="Helvetica-Light" font-size="28.9" fill="#FEFFFF" transform="matrix(1.00, 0.00, -0.00, -1.00, 359.4, 388.0)">r</text><text xml:space="preserve" font-family="Helvetica-Light" font-size="28.9" fill="#FEFFFF" transform="matrix(1.00, 0.00, -0.00, -1.00, 369.0, 388.0)">v</text><text xml:space="preserve" font-family="Helvetica-Light" font-size="28.9" fill="#FEFFFF" transform="matrix(1.00, 0.00, -0.00, -1.00, 383.5, 388.0)">a</text><text xml:space="preserve" font-family="Helvetica-Light" font-size="28.9" fill="#FEFFFF" transform="matrix(1.00, 0.00, -0.00, -1.00, 399.5, 388.0)">t</text><text xml:space="preserve" font-family="Helvetica-Light" font-size="28.9" fill="#FEFFFF" transform="matrix(1.00, 0.00, -0.00, -1.00, 407.6, 388.0)">i</text><text xml:space="preserve" font-family="Helvetica-Light" font-size="28.9" fill="#FEFFFF" transform="matrix(1.00, 0.00, -0.00, -1.00, 414.0, 388.0)">o</text><text xml:space="preserve" font-family="Helvetica-Light" font-size="28.9" fill="#FEFFFF" transform="matrix(1.00, 0.00, -0.00, -1.00, 430.1, 388.0)">n</text><text xml:space="preserve" font-family="Helvetica-Light" font-size="28.9" fill="#FEFFFF" transform="matrix(1.00, 0.00, -0.00, -1.00, 446.1, 388.0)">s</text><text xml:space="preserve" font-family="Helvetica-Light" font-size="28.9" fill="#FEFFFF" transform="matrix(1.00, 0.00, -0.00, -1.00, 460.6, 388.0)"> </text><text xml:space="preserve" font-family="Helvetica-Light" font-size="21.7" fill="#FEFFFF" transform="matrix(1.00, 0.00, -0.00, -1.00, 114.0, 356.4)">•</text><text xml:space="preserve" font-family="Helvetica-Light" font-size="28.9" fill="#FEFFFF" transform="matrix(1.00, 0.00, -0.00, -1.00, 141.0, 354.0)">O</text><text xml:space="preserve" font-family="Helvetica-Light" font-size="28.9" fill="#FEFFFF" transform="matrix(1.00, 0.00, -0.00, -1.00, 163.5, 354.0)">h</text><text xml:space="preserve" font-family="Helvetica-Light" font-size="28.9" fill="#FEFFFF" transform="matrix(1.00, 0.00, -0.00, -1.00, 179.6, 354.0)">i</text><text xml:space="preserve" font-family="Helvetica-Light" font-size="28.9" fill="#FEFFFF" transform="matrix(1.00, 0.00, -0.00, -1.00, 186.0, 354.0)">o</text><text xml:space="preserve" font-family="Helvetica-Light" font-size="28.9" fill="#FEFFFF" transform="matrix(1.00, 0.00, -0.00, -1.00, 202.0, 354.0)"> </text><text xml:space="preserve" font-family="Helvetica-Light" font-size="28.9" fill="#FEFFFF" transform="matrix(1.00, 0.00, -0.00, -1.00, 210.1, 354.0)">R</text><text xml:space="preserve" font-family="Helvetica-Light" font-size="28.9" fill="#FEFFFF" transform="matrix(1.00, 0.00, -0.00, -1.00, 229.3, 354.0)">a</text><text xml:space="preserve" font-family="Helvetica-Light" font-size="28.9" fill="#FEFFFF" transform="matrix(1.00, 0.00, -0.00, -1.00, 245.4, 354.0)">p</text><text xml:space="preserve" font-family="Helvetica-Light" font-size="28.9" fill="#FEFFFF" transform="matrix(1.00, 0.00, -0.00, -1.00, 263.1, 354.0)">i</text><text xml:space="preserve" font-family="Helvetica-Light" font-size="28.9" fill="#FEFFFF" transform="matrix(1.00, 0.00, -0.00, -1.00, 269.5, 354.0)">d</text><text xml:space="preserve" font-family="Helvetica-Light" font-size="28.9" fill="#FEFFFF" transform="matrix(1.00, 0.00, -0.00, -1.00, 287.1, 354.0)"> </text><text xml:space="preserve" font-family="Helvetica-Light" font-size="28.9" fill="#FEFFFF" transform="matrix(1.00, 0.00, -0.00, -1.00, 295.2, 354.0)">A</text><text xml:space="preserve" font-family="Helvetica-Light" font-size="28.9" fill="#FEFFFF" transform="matrix(1.00, 0.00, -0.00, -1.00, 314.5, 354.0)">s</text><text xml:space="preserve" font-family="Helvetica-Light" font-size="28.9" fill="#FEFFFF" transform="matrix(1.00, 0.00, -0.00, -1.00, 328.9, 354.0)">s</text><text xml:space="preserve" font-family="Helvetica-Light" font-size="28.9" fill="#FEFFFF" transform="matrix(1.00, 0.00, -0.00, -1.00, 343.4, 354.0)">e</text><text xml:space="preserve" font-family="Helvetica-Light" font-size="28.9" fill="#FEFFFF" transform="matrix(1.00, 0.00, -0.00, -1.00, 359.4, 354.0)">s</text><text xml:space="preserve" font-family="Helvetica-Light" font-size="28.9" fill="#FEFFFF" transform="matrix(1.00, 0.00, -0.00, -1.00, 373.9, 354.0)">s</text><text xml:space="preserve" font-family="Helvetica-Light" font-size="28.9" fill="#FEFFFF" transform="matrix(1.00, 0.00, -0.00, -1.00, 388.3, 354.0)">m</text><text xml:space="preserve" font-family="Helvetica-Light" font-size="28.9" fill="#FEFFFF" transform="matrix(1.00, 0.00, -0.00, -1.00, 412.4, 354.0)">e</text><text xml:space="preserve" font-family="Helvetica-Light" font-size="28.9" fill="#FEFFFF" transform="matrix(1.00, 0.00, -0.00, -1.00, 428.5, 354.0)">n</text><text xml:space="preserve" font-family="Helvetica-Light" font-size="28.9" fill="#FEFFFF" transform="matrix(1.00, 0.00, -0.00, -1.00, 444.5, 354.0)">t</text><text xml:space="preserve" font-family="Helvetica-Light" font-size="28.9" fill="#FEFFFF" transform="matrix(1.00, 0.00, -0.00, -1.00, 452.6, 354.0)"> </text><text xml:space="preserve" font-family="Helvetica-Light" font-size="28.9" fill="#FEFFFF" transform="matrix(1.00, 0.00, -0.00, -1.00, 460.6, 354.0)">M</text><text xml:space="preserve" font-family="Helvetica-Light" font-size="28.9" fill="#FEFFFF" transform="matrix(1.00, 0.00, -0.00, -1.00, 484.7, 354.0)">e</text><text xml:space="preserve" font-family="Helvetica-Light" font-size="28.9" fill="#FEFFFF" transform="matrix(1.00, 0.00, -0.00, -1.00, 500.7, 354.0)">t</text><text xml:space="preserve" font-family="Helvetica-Light" font-size="28.9" fill="#FEFFFF" transform="matrix(1.00, 0.00, -0.00, -1.00, 508.8, 354.0)">h</text><text xml:space="preserve" font-family="Helvetica-Light" font-size="28.9" fill="#FEFFFF" transform="matrix(1.00, 0.00, -0.00, -1.00, 524.8, 354.0)">o</text><text xml:space="preserve" font-family="Helvetica-Light" font-size="28.9" fill="#FEFFFF" transform="matrix(1.00, 0.00, -0.00, -1.00, 540.9, 354.0)">d</text><text xml:space="preserve" font-family="Helvetica-Light" font-size="28.9" fill="#FEFFFF" transform="matrix(1.00, 0.00, -0.00, -1.00, 558.6, 354.0)">:</text><text xml:space="preserve" font-family="Helvetica-Light" font-size="28.9" fill="#FEFFFF" transform="matrix(1.00, 0.00, -0.00, -1.00, 566.6, 354.0)"> </text><text xml:space="preserve" font-family="Helvetica-Light" font-size="28.9" fill="#FEFFFF" transform="matrix(1.00, 0.00, -0.00, -1.00, 574.6, 354.0)">O</text><text xml:space="preserve" font-family="Helvetica-Light" font-size="28.9" fill="#FEFFFF" transform="matrix(1.00, 0.00, -0.00, -1.00, 597.1, 354.0)">R</text><text xml:space="preserve" font-family="Helvetica-Light" font-size="28.9" fill="#FEFFFF" transform="matrix(1.00, 0.00, -0.00, -1.00, 616.4, 354.0)">A</text><text xml:space="preserve" font-family="Helvetica-Light" font-size="28.9" fill="#FEFFFF" transform="matrix(1.00, 0.00, -0.00, -1.00, 635.7, 354.0)">M</text><text xml:space="preserve" font-family="Helvetica-Light" font-size="28.9" fill="#FEFFFF" transform="matrix(1.00, 0.00, -0.00, -1.00, 659.8, 354.0)"> </text><text xml:space="preserve" font-family="Helvetica-Light" font-size="24.2" fill="#FEFFFF" transform="matrix(1.00, 0.00, -0.00, -1.00, 79.0, 289.4)">•</text><text xml:space="preserve" font-family="Helvetica-Light" font-size="32.3" fill="#FEFFFF" transform="matrix(1.00, 0.00, -0.00, -1.00, 109.0, 287.0)">S</text><text xml:space="preserve" font-family="Helvetica-Light" font-size="32.3" fill="#FEFFFF" transform="matrix(1.00, 0.00, -0.00, -1.00, 128.7, 287.0)">i</text><text xml:space="preserve" font-family="Helvetica-Light" font-size="32.3" fill="#FEFFFF" transform="matrix(1.00, 0.00, -0.00, -1.00, 135.9, 287.0)">t</text><text xml:space="preserve" font-family="Helvetica-Light" font-size="32.3" fill="#FEFFFF" transform="matrix(1.00, 0.00, -0.00, -1.00, 144.9, 287.0)">e</text><text xml:space="preserve" font-family="Helvetica-Light" font-size="32.3" fill="#FEFFFF" transform="matrix(1.00, 0.00, -0.00, -1.00, 162.8, 287.0)"> </text><text xml:space="preserve" font-family="Helvetica-Light" font-size="32.3" fill="#FEFFFF" transform="matrix(1.00, 0.00, -0.00, -1.00, 171.8, 287.0)">S</text><text xml:space="preserve" font-family="Helvetica-Light" font-size="32.3" fill="#FEFFFF" transform="matrix(1.00, 0.00, -0.00, -1.00, 191.6, 287.0)">u</text><text xml:space="preserve" font-family="Helvetica-Light" font-size="32.3" fill="#FEFFFF" transform="matrix(1.00, 0.00, -0.00, -1.00, 209.5, 287.0)">r</text><text xml:space="preserve" font-family="Helvetica-Light" font-size="32.3" fill="#FEFFFF" transform="matrix(1.00, 0.00, -0.00, -1.00, 220.3, 287.0)">v</text><text xml:space="preserve" font-family="Helvetica-Light" font-size="32.3" fill="#FEFFFF" transform="matrix(1.00, 0.00, -0.00, -1.00, 236.4, 287.0)">e</text><text xml:space="preserve" font-family="Helvetica-Light" font-size="32.3" fill="#FEFFFF" transform="matrix(1.00, 0.00, -0.00, -1.00, 254.4, 287.0)">y</text><text xml:space="preserve" font-family="Helvetica-Light" font-size="32.3" fill="#FEFFFF" transform="matrix(1.00, 0.00, -0.00, -1.00, 270.5, 287.0)">s</text><text xml:space="preserve" font-family="Helvetica-Light" font-size="32.3" fill="#FEFFFF" transform="matrix(1.00, 0.00, -0.00, -1.00, 286.7, 287.0)"> </text><text xml:space="preserve" font-family="Helvetica-Light" font-size="21.7" fill="#FEFFFF" transform="matrix(1.00, 0.00, -0.00, -1.00, 114.0, 255.5)">•</text><text xml:space="preserve" font-family="Helvetica-Light" font-size="28.9" fill="#FEFFFF" transform="matrix(1.00, 0.00, -0.00, -1.00, 141.0, 253.0)">ﬁ</text><text xml:space="preserve" font-family="Helvetica-Light" font-size="28.9" fill="#FEFFFF" transform="matrix(1.00, 0.00, -0.00, -1.00, 155.4, 253.0)">r</text><text xml:space="preserve" font-family="Helvetica-Light" font-size="28.9" fill="#FEFFFF" transform="matrix(1.00, 0.00, -0.00, -1.00, 165.1, 253.0)">s</text><text xml:space="preserve" font-family="Helvetica-Light" font-size="28.9" fill="#FEFFFF" transform="matrix(1.00, 0.00, -0.00, -1.00, 179.5, 253.0)">t</text><text xml:space="preserve" font-family="Helvetica-Light" font-size="28.9" fill="#FEFFFF" transform="matrix(1.00, 0.00, -0.00, -1.00, 187.6, 253.0)"> </text><text xml:space="preserve" font-family="Helvetica-Light" font-size="28.9" fill="#FEFFFF" transform="matrix(1.00, 0.00, -0.00, -1.00, 195.6, 253.0)">o</text><text xml:space="preserve" font-family="Helvetica-Light" font-size="28.9" fill="#FEFFFF" transform="matrix(1.00, 0.00, -0.00, -1.00, 211.7, 253.0)">r</text><text xml:space="preserve" font-family="Helvetica-Light" font-size="28.9" fill="#FEFFFF" transform="matrix(1.00, 0.00, -0.00, -1.00, 221.3, 253.0)"> </text><text xml:space="preserve" font-family="Helvetica-Light" font-size="28.9" fill="#FEFFFF" transform="matrix(1.00, 0.00, -0.00, -1.00, 229.3, 253.0)">o</text><text xml:space="preserve" font-family="Helvetica-Light" font-size="28.9" fill="#FEFFFF" transform="matrix(1.00, 0.00, -0.00, -1.00, 245.4, 253.0)">n</text><text xml:space="preserve" font-family="Helvetica-Light" font-size="28.9" fill="#FEFFFF" transform="matrix(1.00, 0.00, -0.00, -1.00, 261.5, 253.0)">e</text><text xml:space="preserve" font-family="Helvetica-Light" font-size="28.9" fill="#FEFFFF" transform="matrix(1.00, 0.00, -0.00, -1.00, 277.5, 253.0)">-</text><text xml:space="preserve" font-family="Helvetica-Light" font-size="28.9" fill="#FEFFFF" transform="matrix(1.00, 0.00, -0.00, -1.00, 287.1, 253.0)">t</text><text xml:space="preserve" font-family="Helvetica-Light" font-size="28.9" fill="#FEFFFF" transform="matrix(1.00, 0.00, -0.00, -1.00, 295.2, 253.0)">i</text><text xml:space="preserve" font-family="Helvetica-Light" font-size="28.9" fill="#FEFFFF" transform="matrix(1.00, 0.00, -0.00, -1.00, 301.6, 253.0)">m</text><text xml:space="preserve" font-family="Helvetica-Light" font-size="28.9" fill="#FEFFFF" transform="matrix(1.00, 0.00, -0.00, -1.00, 325.7, 253.0)">e</text><text xml:space="preserve" font-family="Helvetica-Light" font-size="28.9" fill="#FEFFFF" transform="matrix(1.00, 0.00, -0.00, -1.00, 341.7, 253.0)"> </text><text xml:space="preserve" font-family="Helvetica-Light" font-size="28.9" fill="#FEFFFF" transform="matrix(1.00, 0.00, -0.00, -1.00, 349.8, 253.0)">v</text><text xml:space="preserve" font-family="Helvetica-Light" font-size="28.9" fill="#FEFFFF" transform="matrix(1.00, 0.00, -0.00, -1.00, 364.2, 253.0)">i</text><text xml:space="preserve" font-family="Helvetica-Light" font-size="28.9" fill="#FEFFFF" transform="matrix(1.00, 0.00, -0.00, -1.00, 370.6, 253.0)">s</text><text xml:space="preserve" font-family="Helvetica-Light" font-size="28.9" fill="#FEFFFF" transform="matrix(1.00, 0.00, -0.00, -1.00, 385.1, 253.0)">i</text><text xml:space="preserve" font-family="Helvetica-Light" font-size="28.9" fill="#FEFFFF" transform="matrix(1.00, 0.00, -0.00, -1.00, 391.5, 253.0)">t</text><text xml:space="preserve" font-family="Helvetica-Light" font-size="28.9" fill="#FEFFFF" transform="matrix(1.00, 0.00, -0.00, -1.00, 399.5, 253.0)">s</text><text xml:space="preserve" font-family="Helvetica-Light" font-size="28.9" fill="#FEFFFF" transform="matrix(1.00, 0.00, -0.00, -1.00, 414.0, 253.0)"> </text><text xml:space="preserve" font-family="Helvetica-Light" font-size="21.7" fill="#FEFFFF" transform="matrix(1.00, 0.00, -0.00, -1.00, 114.0, 221.1)">•</text><text xml:space="preserve" font-family="Helvetica-Light" font-size="28.9" fill="#FEFFFF" transform="matrix(1.00, 0.00, -0.00, -1.00, 141.0, 218.0)">m</text><text xml:space="preserve" font-family="Helvetica-Light" font-size="28.9" fill="#FEFFFF" transform="matrix(1.00, 0.00, -0.00, -1.00, 165.1, 218.0)">o</text><text xml:space="preserve" font-family="Helvetica-Light" font-size="28.9" fill="#FEFFFF" transform="matrix(1.00, 0.00, -0.00, -1.00, 181.1, 218.0)">n</text><text xml:space="preserve" font-family="Helvetica-Light" font-size="28.9" fill="#FEFFFF" transform="matrix(1.00, 0.00, -0.00, -1.00, 197.2, 218.0)">i</text><text xml:space="preserve" font-family="Helvetica-Light" font-size="28.9" fill="#FEFFFF" transform="matrix(1.00, 0.00, -0.00, -1.00, 203.6, 218.0)">t</text><text xml:space="preserve" font-family="Helvetica-Light" font-size="28.9" fill="#FEFFFF" transform="matrix(1.00, 0.00, -0.00, -1.00, 211.7, 218.0)">o</text><text xml:space="preserve" font-family="Helvetica-Light" font-size="28.9" fill="#FEFFFF" transform="matrix(1.00, 0.00, -0.00, -1.00, 227.7, 218.0)">r</text><text xml:space="preserve" font-family="Helvetica-Light" font-size="28.9" fill="#FEFFFF" transform="matrix(1.00, 0.00, -0.00, -1.00, 237.4, 218.0)">i</text><text xml:space="preserve" font-family="Helvetica-Light" font-size="28.9" fill="#FEFFFF" transform="matrix(1.00, 0.00, -0.00, -1.00, 243.8, 218.0)">n</text><text xml:space="preserve" font-family="Helvetica-Light" font-size="28.9" fill="#FEFFFF" transform="matrix(1.00, 0.00, -0.00, -1.00, 259.8, 218.0)">g</text><text xml:space="preserve" font-family="Helvetica-Light" font-size="28.9" fill="#FEFFFF" transform="matrix(1.00, 0.00, -0.00, -1.00, 277.5, 218.0)"> </text><text xml:space="preserve" font-family="Helvetica-Light" font-size="28.9" fill="#FEFFFF" transform="matrix(1.00, 0.00, -0.00, -1.00, 285.5, 218.0)">a</text><text xml:space="preserve" font-family="Helvetica-Light" font-size="28.9" fill="#FEFFFF" transform="matrix(1.00, 0.00, -0.00, -1.00, 301.6, 218.0)">c</text><text xml:space="preserve" font-family="Helvetica-Light" font-size="28.9" fill="#FEFFFF" transform="matrix(1.00, 0.00, -0.00, -1.00, 317.7, 218.0)">t</text><text xml:space="preserve" font-family="Helvetica-Light" font-size="28.9" fill="#FEFFFF" transform="matrix(1.00, 0.00, -0.00, -1.00, 325.7, 218.0)">i</text><text xml:space="preserve" font-family="Helvetica-Light" font-size="28.9" fill="#FEFFFF" transform="matrix(1.00, 0.00, -0.00, -1.00, 332.1, 218.0)">v</text><text xml:space="preserve" font-family="Helvetica-Light" font-size="28.9" fill="#FEFFFF" transform="matrix(1.00, 0.00, -0.00, -1.00, 346.6, 218.0)">i</text><text xml:space="preserve" font-family="Helvetica-Light" font-size="28.9" fill="#FEFFFF" transform="matrix(1.00, 0.00, -0.00, -1.00, 353.0, 218.0)">t</text><text xml:space="preserve" font-family="Helvetica-Light" font-size="28.9" fill="#FEFFFF" transform="matrix(1.00, 0.00, -0.00, -1.00, 361.0, 218.0)">i</text><text xml:space="preserve" font-family="Helvetica-Light" font-size="28.9" fill="#FEFFFF" transform="matrix(1.00, 0.00, -0.00, -1.00, 367.4, 218.0)">e</text><text xml:space="preserve" font-family="Helvetica-Light" font-size="28.9" fill="#FEFFFF" transform="matrix(1.00, 0.00, -0.00, -1.00, 383.5, 218.0)">s</text><text xml:space="preserve" font-family="Helvetica-Light" font-size="28.9" fill="#FEFFFF" transform="matrix(1.00, 0.00, -0.00, -1.00, 397.9, 218.0)"> </text><text xml:space="preserve" font-family="Helvetica-Light" font-size="24.2" fill="#FEFFFF" transform="matrix(1.00, 0.00, -0.00, -1.00, 79.0, 154.2)">•</text><text xml:space="preserve" font-family="Helvetica-Light" font-size="32.3" fill="#FEFFFF" transform="matrix(1.00, 0.00, -0.00, -1.00, 109.0, 152.0)">C</text><text xml:space="preserve" font-family="Helvetica-Light" font-size="32.3" fill="#FEFFFF" transform="matrix(1.00, 0.00, -0.00, -1.00, 132.3, 152.0)">a</text><text xml:space="preserve" font-family="Helvetica-Light" font-size="32.3" fill="#FEFFFF" transform="matrix(1.00, 0.00, -0.00, -1.00, 150.3, 152.0)">m</text><text xml:space="preserve" font-family="Helvetica-Light" font-size="32.3" fill="#FEFFFF" transform="matrix(1.00, 0.00, -0.00, -1.00, 177.2, 152.0)">e</text><text xml:space="preserve" font-family="Helvetica-Light" font-size="32.3" fill="#FEFFFF" transform="matrix(1.00, 0.00, -0.00, -1.00, 195.1, 152.0)">r</text><text xml:space="preserve" font-family="Helvetica-Light" font-size="32.3" fill="#FEFFFF" transform="matrix(1.00, 0.00, -0.00, -1.00, 205.9, 152.0)">a</text><text xml:space="preserve" font-family="Helvetica-Light" font-size="32.3" fill="#FEFFFF" transform="matrix(1.00, 0.00, -0.00, -1.00, 223.9, 152.0)"> </text><text xml:space="preserve" font-family="Helvetica-Light" font-size="32.3" fill="#FEFFFF" transform="matrix(1.00, 0.00, -0.00, -1.00, 232.8, 152.0)">t</text><text xml:space="preserve" font-family="Helvetica-Light" font-size="32.3" fill="#FEFFFF" transform="matrix(1.00, 0.00, -0.00, -1.00, 241.8, 152.0)">r</text><text xml:space="preserve" font-family="Helvetica-Light" font-size="32.3" fill="#FEFFFF" transform="matrix(1.00, 0.00, -0.00, -1.00, 252.6, 152.0)">a</text><text xml:space="preserve" font-family="Helvetica-Light" font-size="32.3" fill="#FEFFFF" transform="matrix(1.00, 0.00, -0.00, -1.00, 270.5, 152.0)">p</text><text xml:space="preserve" font-family="Helvetica-Light" font-size="32.3" fill="#FEFFFF" transform="matrix(1.00, 0.00, -0.00, -1.00, 290.3, 152.0)">s</text><text xml:space="preserve" font-family="Helvetica-Light" font-size="32.3" fill="#FEFFFF" transform="matrix(1.00, 0.00, -0.00, -1.00, 306.4, 152.0)"> </text><text xml:space="preserve" font-family="Helvetica-Light" font-size="24.2" fill="#FEFFFF" transform="matrix(1.00, 0.00, -0.00, -1.00, 79.0, 87.7)">•</text><text xml:space="preserve" font-family="Helvetica-Light" font-size="32.3" fill="#FEFFFF" transform="matrix(1.00, 0.00, -0.00, -1.00, 109.0, 86.0)">G</text><text xml:space="preserve" font-family="Helvetica-Light" font-size="32.3" fill="#FEFFFF" transform="matrix(1.00, 0.00, -0.00, -1.00, 134.1, 86.0)">u</text><text xml:space="preserve" font-family="Helvetica-Light" font-size="32.3" fill="#FEFFFF" transform="matrix(1.00, 0.00, -0.00, -1.00, 152.1, 86.0)">l</text><text xml:space="preserve" font-family="Helvetica-Light" font-size="32.3" fill="#FEFFFF" transform="matrix(1.00, 0.00, -0.00, -1.00, 159.3, 86.0)">l</text><text xml:space="preserve" font-family="Helvetica-Light" font-size="32.3" fill="#FEFFFF" transform="matrix(1.00, 0.00, -0.00, -1.00, 166.4, 86.0)"> </text><text xml:space="preserve" font-family="Helvetica-Light" font-size="32.3" fill="#FEFFFF" transform="matrix(1.00, 0.00, -0.00, -1.00, 175.4, 86.0)">a</text><text xml:space="preserve" font-family="Helvetica-Light" font-size="32.3" fill="#FEFFFF" transform="matrix(1.00, 0.00, -0.00, -1.00, 193.4, 86.0)">n</text><text xml:space="preserve" font-family="Helvetica-Light" font-size="32.3" fill="#FEFFFF" transform="matrix(1.00, 0.00, -0.00, -1.00, 211.3, 86.0)">d</text><text xml:space="preserve" font-family="Helvetica-Light" font-size="32.3" fill="#FEFFFF" transform="matrix(1.00, 0.00, -0.00, -1.00, 231.1, 86.0)"> </text><text xml:space="preserve" font-family="Helvetica-Light" font-size="32.3" fill="#FEFFFF" transform="matrix(1.00, 0.00, -0.00, -1.00, 240.0, 86.0)">G</text><text xml:space="preserve" font-family="Helvetica-Light" font-size="32.3" fill="#FEFFFF" transform="matrix(1.00, 0.00, -0.00, -1.00, 265.2, 86.0)">o</text><text xml:space="preserve" font-family="Helvetica-Light" font-size="32.3" fill="#FEFFFF" transform="matrix(1.00, 0.00, -0.00, -1.00, 283.1, 86.0)">o</text><text xml:space="preserve" font-family="Helvetica-Light" font-size="32.3" fill="#FEFFFF" transform="matrix(1.00, 0.00, -0.00, -1.00, 301.1, 86.0)">s</text><text xml:space="preserve" font-family="Helvetica-Light" font-size="32.3" fill="#FEFFFF" transform="matrix(1.00, 0.00, -0.00, -1.00, 317.2, 86.0)">e</text><text xml:space="preserve" font-family="Helvetica-Light" font-size="32.3" fill="#FEFFFF" transform="matrix(1.00, 0.00, -0.00, -1.00, 335.2, 86.0)"> </text><text xml:space="preserve" font-family="Helvetica-Light" font-size="32.3" fill="#FEFFFF" transform="matrix(1.00, 0.00, -0.00, -1.00, 344.2, 86.0)">O</text><text xml:space="preserve" font-family="Helvetica-Light" font-size="32.3" fill="#FEFFFF" transform="matrix(1.00, 0.00, -0.00, -1.00, 369.3, 86.0)">b</text><text xml:space="preserve" font-family="Helvetica-Light" font-size="32.3" fill="#FEFFFF" transform="matrix(1.00, 0.00, -0.00, -1.00, 389.0, 86.0)">s</text><text xml:space="preserve" font-family="Helvetica-Light" font-size="32.3" fill="#FEFFFF" transform="matrix(1.00, 0.00, -0.00, -1.00, 405.2, 86.0)">e</text><text xml:space="preserve" font-family="Helvetica-Light" font-size="32.3" fill="#FEFFFF" transform="matrix(1.00, 0.00, -0.00, -1.00, 423.1, 86.0)">r</text><text xml:space="preserve" font-family="Helvetica-Light" font-size="32.3" fill="#FEFFFF" transform="matrix(1.00, 0.00, -0.00, -1.00, 433.9, 86.0)">v</text><text xml:space="preserve" font-family="Helvetica-Light" font-size="32.3" fill="#FEFFFF" transform="matrix(1.00, 0.00, -0.00, -1.00, 450.1, 86.0)">a</text><text xml:space="preserve" font-family="Helvetica-Light" font-size="32.3" fill="#FEFFFF" transform="matrix(1.00, 0.00, -0.00, -1.00, 468.0, 86.0)">t</text><text xml:space="preserve" font-family="Helvetica-Light" font-size="32.3" fill="#FEFFFF" transform="matrix(1.00, 0.00, -0.00, -1.00, 477.0, 86.0)">i</text><text xml:space="preserve" font-family="Helvetica-Light" font-size="32.3" fill="#FEFFFF" transform="matrix(1.00, 0.00, -0.00, -1.00, 484.2, 86.0)">o</text><text xml:space="preserve" font-family="Helvetica-Light" font-size="32.3" fill="#FEFFFF" transform="matrix(1.00, 0.00, -0.00, -1.00, 502.1, 86.0)">n</text><text xml:space="preserve" font-family="Helvetica-Light" font-size="32.3" fill="#FEFFFF" transform="matrix(1.00, 0.00, -0.00, -1.00, 520.1, 86.0)">s</text></g></svg>