<?xml version="1.0" encoding="UTF-8" standalone="no"?><svg xmlns="http://www.w3.org/2000/svg" xmlns:xlink="http://www.w3.org/1999/xlink" clip-rule="evenodd" stroke-miterlimit="4.00" viewBox="0 0 1024 768"><desc>SVG generated by Keynote</desc><defs></defs><g transform="matrix(1.00, 0.00, -0.00, -1.00, 0.0, 768.0)"><path d="M 0.0 768.0 L 1024.0 768.0 L 1024.0 0.0 L 0.0 0.0 Z M 0.0 768.0 " fill="#000000"></path><image xlink:href="../../9FACBD7E-08C6-415F-983E-267657B6FED3/assets/96039A2BBECD132A47B5277FAAD33C45.jpeg" width="410.00" height="545.00" transform="matrix(1.40, 0.00, -0.00, -1.41, 224.0, 767.0)"></image><image xlink:href="../../9FACBD7E-08C6-415F-983E-267657B6FED3/assets/D25C79918A86EE8062AFDE2DA65121B2.png" width="201.00" height="45.00" transform="matrix(1.00, 0.00, -0.00, -1.00, 412.0, 115.0)"></image><text xml:space="preserve" font-family="Helvetica-Light" font-size="36.0" fill="#FEFFFF" transform="matrix(1.00, 0.00, -0.00, -1.00, 415.0, 85.0)">L</text><text xml:space="preserve" font-family="Helvetica-Light" font-size="36.0" fill="#FEFFFF" transform="matrix(1.00, 0.00, -0.00, -1.00, 435.0, 85.0)">a</text><text xml:space="preserve" font-family="Helvetica-Light" font-size="36.0" fill="#FEFFFF" transform="matrix(1.00, 0.00, -0.00, -1.00, 455.0, 85.0)">k</text><text xml:space="preserve" font-family="Helvetica-Light" font-size="36.0" fill="#FEFFFF" transform="matrix(1.00, 0.00, -0.00, -1.00, 473.0, 85.0)">e</text><text xml:space="preserve" font-family="Helvetica-Light" font-size="36.0" fill="#FEFFFF" transform="matrix(1.00, 0.00, -0.00, -1.00, 493.0, 85.0)"> </text><text xml:space="preserve" font-family="Helvetica-Light" font-size="36.0" fill="#FEFFFF" transform="matrix(1.00, 0.00, -0.00, -1.00, 503.1, 85.0)">S</text><text xml:space="preserve" font-family="Helvetica-Light" font-size="36.0" fill="#FEFFFF" transform="matrix(1.00, 0.00, -0.00, -1.00, 525.1, 85.0)">e</text><text xml:space="preserve" font-family="Helvetica-Light" font-size="36.0" fill="#FEFFFF" transform="matrix(1.00, 0.00, -0.00, -1.00, 545.1, 85.0)">d</text><text xml:space="preserve" font-family="Helvetica-Light" font-size="36.0" fill="#FEFFFF" transform="matrix(1.00, 0.00, -0.00, -1.00, 567.1, 85.0)">g</text><text xml:space="preserve" font-family="Helvetica-Light" font-size="36.0" fill="#FEFFFF" transform="matrix(1.00, 0.00, -0.00, -1.00, 589.1, 85.0)">e</text><text xml:space="preserve" font-family="Helvetica-Light" font-size="36.0" fill="#FEFFFF" transform="matrix(1.00, 0.00, -0.00, -1.00, 609.1, 85.0)"> </text><image xlink:href="../../9FACBD7E-08C6-415F-983E-267657B6FED3/assets/F8578122FF82580F748E2DA5DB03C6C9.png" width="248.00" height="38.00" transform="matrix(1.00, 0.00, -0.00, -1.00, 390.0, 72.0)"></image><text xml:space="preserve" font-family="Helvetica-LightOblique" font-style="italic" font-size="36.0" fill="#FEFFFF" transform="matrix(1.00, 0.00, -0.00, -1.00, 392.0, 42.0)">C</text><text xml:space="preserve" font-family="Helvetica-LightOblique" font-style="italic" font-size="36.0" fill="#FEFFFF" transform="matrix(1.00, 0.00, -0.00, -1.00, 418.0, 42.0)">a</text><text xml:space="preserve" font-family="Helvetica-LightOblique" font-style="italic" font-size="36.0" fill="#FEFFFF" transform="matrix(1.00, 0.00, -0.00, -1.00, 438.0, 42.0)">r</text><text xml:space="preserve" font-family="Helvetica-LightOblique" font-style="italic" font-size="36.0" fill="#FEFFFF" transform="matrix(1.00, 0.00, -0.00, -1.00, 449.3, 42.0)">e</text><text xml:space="preserve" font-family="Helvetica-LightOblique" font-style="italic" font-size="36.0" fill="#FEFFFF" transform="matrix(1.00, 0.00, -0.00, -1.00, 469.4, 42.0)">x</text><text xml:space="preserve" font-family="Helvetica-LightOblique" font-style="italic" font-size="36.0" fill="#FEFFFF" transform="matrix(1.00, 0.00, -0.00, -1.00, 487.4, 42.0)"> </text><text xml:space="preserve" font-family="Helvetica-LightOblique" font-style="italic" font-size="36.0" fill="#FEFFFF" transform="matrix(1.00, 0.00, -0.00, -1.00, 497.4, 42.0)">l</text><text xml:space="preserve" font-family="Helvetica-LightOblique" font-style="italic" font-size="36.0" fill="#FEFFFF" transform="matrix(1.00, 0.00, -0.00, -1.00, 505.4, 42.0)">a</text><text xml:space="preserve" font-family="Helvetica-LightOblique" font-style="italic" font-size="36.0" fill="#FEFFFF" transform="matrix(1.00, 0.00, -0.00, -1.00, 525.4, 42.0)">c</text><text xml:space="preserve" font-family="Helvetica-LightOblique" font-style="italic" font-size="36.0" fill="#FEFFFF" transform="matrix(1.00, 0.00, -0.00, -1.00, 545.4, 42.0)">u</text><text xml:space="preserve" font-family="Helvetica-LightOblique" font-style="italic" font-size="36.0" fill="#FEFFFF" transform="matrix(1.00, 0.00, -0.00, -1.00, 565.4, 42.0)">s</text><text xml:space="preserve" font-family="Helvetica-LightOblique" font-style="italic" font-size="36.0" fill="#FEFFFF" transform="matrix(1.00, 0.00, -0.00, -1.00, 583.4, 42.0)">t</text><text xml:space="preserve" font-family="Helvetica-LightOblique" font-style="italic" font-size="36.0" fill="#FEFFFF" transform="matrix(1.00, 0.00, -0.00, -1.00, 593.4, 42.0)">r</text><text xml:space="preserve" font-family="Helvetica-LightOblique" font-style="italic" font-size="36.0" fill="#FEFFFF" transform="matrix(1.00, 0.00, -0.00, -1.00, 605.4, 42.0)">i</text><text xml:space="preserve" font-family="Helvetica-LightOblique" font-style="italic" font-size="36.0" fill="#FEFFFF" transform="matrix(1.00, 0.00, -0.00, -1.00, 613.4, 42.0)">s</text><text xml:space="preserve" font-family="Helvetica" font-size="17.0" fill="#DCDDE0" transform="matrix(1.00, 0.00, -0.00, -1.00, 30.0, 733.0)">c</text><text xml:space="preserve" font-family="Helvetica" font-size="17.0" fill="#DCDDE0" transform="matrix(1.00, 0.00, -0.00, -1.00, 38.5, 733.0)">r</text><text xml:space="preserve" font-family="Helvetica" font-size="17.0" fill="#DCDDE0" transform="matrix(1.00, 0.00, -0.00, -1.00, 44.2, 733.0)">e</text><text xml:space="preserve" font-family="Helvetica" font-size="17.0" fill="#DCDDE0" transform="matrix(1.00, 0.00, -0.00, -1.00, 53.6, 733.0)">d</text><text xml:space="preserve" font-family="Helvetica" font-size="17.0" fill="#DCDDE0" transform="matrix(1.00, 0.00, -0.00, -1.00, 63.1, 733.0)">i</text><text xml:space="preserve" font-family="Helvetica" font-size="17.0" fill="#DCDDE0" transform="matrix(1.00, 0.00, -0.00, -1.00, 66.9, 733.0)">t</text><text xml:space="preserve" font-family="Helvetica" font-size="17.0" fill="#DCDDE0" transform="matrix(1.00, 0.00, -0.00, -1.00, 71.6, 733.0)">:</text><text xml:space="preserve" font-family="Helvetica" font-size="17.0" fill="#DCDDE0" transform="matrix(1.00, 0.00, -0.00, -1.00, 76.3, 733.0)"> </text><text xml:space="preserve" font-family="Helvetica" font-size="17.0" fill="#DCDDE0" transform="matrix(1.00, 0.00, -0.00, -1.00, 81.0, 733.0)">h</text><text xml:space="preserve" font-family="Helvetica" font-size="17.0" fill="#DCDDE0" transform="matrix(1.00, 0.00, -0.00, -1.00, 90.5, 733.0)">t</text><text xml:space="preserve" font-family="Helvetica" font-size="17.0" fill="#DCDDE0" transform="matrix(1.00, 0.00, -0.00, -1.00, 95.2, 733.0)">t</text><text xml:space="preserve" font-family="Helvetica" font-size="17.0" fill="#DCDDE0" transform="matrix(1.00, 0.00, -0.00, -1.00, 99.9, 733.0)">p</text><text xml:space="preserve" font-family="Helvetica" font-size="17.0" fill="#DCDDE0" transform="matrix(1.00, 0.00, -0.00, -1.00, 109.4, 733.0)">:</text><text xml:space="preserve" font-family="Helvetica" font-size="17.0" fill="#DCDDE0" transform="matrix(1.00, 0.00, -0.00, -1.00, 114.1, 733.0)">/</text><text xml:space="preserve" font-family="Helvetica" font-size="17.0" fill="#DCDDE0" transform="matrix(1.00, 0.00, -0.00, -1.00, 118.8, 733.0)">/</text><text xml:space="preserve" font-family="Helvetica" font-size="17.0" fill="#DCDDE0" transform="matrix(1.00, 0.00, -0.00, -1.00, 123.5, 733.0)">w</text><text xml:space="preserve" font-family="Helvetica" font-size="17.0" fill="#DCDDE0" transform="matrix(1.00, 0.00, -0.00, -1.00, 135.8, 733.0)">w</text><text xml:space="preserve" font-family="Helvetica" font-size="17.0" fill="#DCDDE0" transform="matrix(1.00, 0.00, -0.00, -1.00, 148.1, 733.0)">w</text><text xml:space="preserve" font-family="Helvetica" font-size="17.0" fill="#DCDDE0" transform="matrix(1.00, 0.00, -0.00, -1.00, 159.4, 733.0)">.</text><text xml:space="preserve" font-family="Helvetica" font-size="17.0" fill="#DCDDE0" transform="matrix(1.00, 0.00, -0.00, -1.00, 164.2, 733.0)">i</text><text xml:space="preserve" font-family="Helvetica" font-size="17.0" fill="#DCDDE0" transform="matrix(1.00, 0.00, -0.00, -1.00, 167.9, 733.0)">l</text><text xml:space="preserve" font-family="Helvetica" font-size="17.0" fill="#DCDDE0" transform="matrix(1.00, 0.00, -0.00, -1.00, 171.7, 733.0)">l</text><text xml:space="preserve" font-family="Helvetica" font-size="17.0" fill="#DCDDE0" transform="matrix(1.00, 0.00, -0.00, -1.00, 175.5, 733.0)">i</text><text xml:space="preserve" font-family="Helvetica" font-size="17.0" fill="#DCDDE0" transform="matrix(1.00, 0.00, -0.00, -1.00, 179.3, 733.0)">n</text><text xml:space="preserve" font-family="Helvetica" font-size="17.0" fill="#DCDDE0" transform="matrix(1.00, 0.00, -0.00, -1.00, 188.7, 733.0)">o</text><text xml:space="preserve" font-family="Helvetica" font-size="17.0" fill="#DCDDE0" transform="matrix(1.00, 0.00, -0.00, -1.00, 198.2, 733.0)">i</text><text xml:space="preserve" font-family="Helvetica" font-size="17.0" fill="#DCDDE0" transform="matrix(1.00, 0.00, -0.00, -1.00, 202.0, 733.0)">s</text><text xml:space="preserve" font-family="Helvetica" font-size="17.0" fill="#DCDDE0" transform="matrix(1.00, 0.00, -0.00, -1.00, 210.5, 733.0)">w</text><text xml:space="preserve" font-family="Helvetica" font-size="17.0" fill="#DCDDE0" transform="matrix(1.00, 0.00, -0.00, -1.00, 222.8, 733.0)">i</text><text xml:space="preserve" font-family="Helvetica" font-size="17.0" fill="#DCDDE0" transform="matrix(1.00, 0.00, -0.00, -1.00, 226.5, 733.0)">l</text><text xml:space="preserve" font-family="Helvetica" font-size="17.0" fill="#DCDDE0" transform="matrix(1.00, 0.00, -0.00, -1.00, 230.3, 733.0)">d</text><text xml:space="preserve" font-family="Helvetica" font-size="17.0" fill="#DCDDE0" transform="matrix(1.00, 0.00, -0.00, -1.00, 239.8, 733.0)">ﬂ</text><text xml:space="preserve" font-family="Helvetica" font-size="17.0" fill="#DCDDE0" transform="matrix(1.00, 0.00, -0.00, -1.00, 248.3, 733.0)">o</text><text xml:space="preserve" font-family="Helvetica" font-size="17.0" fill="#DCDDE0" transform="matrix(1.00, 0.00, -0.00, -1.00, 257.7, 733.0)">w</text><text xml:space="preserve" font-family="Helvetica" font-size="17.0" fill="#DCDDE0" transform="matrix(1.00, 0.00, -0.00, -1.00, 270.0, 733.0)">e</text><text xml:space="preserve" font-family="Helvetica" font-size="17.0" fill="#DCDDE0" transform="matrix(1.00, 0.00, -0.00, -1.00, 279.5, 733.0)">r</text><text xml:space="preserve" font-family="Helvetica" font-size="17.0" fill="#DCDDE0" transform="matrix(1.00, 0.00, -0.00, -1.00, 285.1, 733.0)">s</text><text xml:space="preserve" font-family="Helvetica" font-size="17.0" fill="#DCDDE0" transform="matrix(1.00, 0.00, -0.00, -1.00, 293.6, 733.0)">.</text><text xml:space="preserve" font-family="Helvetica" font-size="17.0" fill="#DCDDE0" transform="matrix(1.00, 0.00, -0.00, -1.00, 298.4, 733.0)">i</text><text xml:space="preserve" font-family="Helvetica" font-size="17.0" fill="#DCDDE0" transform="matrix(1.00, 0.00, -0.00, -1.00, 302.1, 733.0)">n</text><text xml:space="preserve" font-family="Helvetica" font-size="17.0" fill="#DCDDE0" transform="matrix(1.00, 0.00, -0.00, -1.00, 311.6, 733.0)">f</text><text xml:space="preserve" font-family="Helvetica" font-size="17.0" fill="#DCDDE0" transform="matrix(1.00, 0.00, -0.00, -1.00, 316.3, 733.0)">o</text><text xml:space="preserve" font-family="Helvetica" font-size="17.0" fill="#DCDDE0" transform="matrix(1.00, 0.00, -0.00, -1.00, 325.8, 733.0)">/</text><text xml:space="preserve" font-family="Helvetica" font-size="17.0" fill="#DCDDE0" transform="matrix(1.00, 0.00, -0.00, -1.00, 330.5, 733.0)">g</text><text xml:space="preserve" font-family="Helvetica" font-size="17.0" fill="#DCDDE0" transform="matrix(1.00, 0.00, -0.00, -1.00, 339.9, 733.0)">r</text><text xml:space="preserve" font-family="Helvetica" font-size="17.0" fill="#DCDDE0" transform="matrix(1.00, 0.00, -0.00, -1.00, 345.6, 733.0)">a</text><text xml:space="preserve" font-family="Helvetica" font-size="17.0" fill="#DCDDE0" transform="matrix(1.00, 0.00, -0.00, -1.00, 355.1, 733.0)">s</text><text xml:space="preserve" font-family="Helvetica" font-size="17.0" fill="#DCDDE0" transform="matrix(1.00, 0.00, -0.00, -1.00, 363.6, 733.0)">s</text><text xml:space="preserve" font-family="Helvetica" font-size="17.0" fill="#DCDDE0" transform="matrix(1.00, 0.00, -0.00, -1.00, 372.1, 733.0)">e</text><text xml:space="preserve" font-family="Helvetica" font-size="17.0" fill="#DCDDE0" transform="matrix(1.00, 0.00, -0.00, -1.00, 381.5, 733.0)">s</text><text xml:space="preserve" font-family="Helvetica" font-size="17.0" fill="#DCDDE0" transform="matrix(1.00, 0.00, -0.00, -1.00, 390.0, 733.0)">/</text><text xml:space="preserve" font-family="Helvetica" font-size="17.0" fill="#DCDDE0" transform="matrix(1.00, 0.00, -0.00, -1.00, 394.7, 733.0)">p</text><text xml:space="preserve" font-family="Helvetica" font-size="17.0" fill="#DCDDE0" transform="matrix(1.00, 0.00, -0.00, -1.00, 404.2, 733.0)">l</text><text xml:space="preserve" font-family="Helvetica" font-size="17.0" fill="#DCDDE0" transform="matrix(1.00, 0.00, -0.00, -1.00, 408.0, 733.0)">a</text><text xml:space="preserve" font-family="Helvetica" font-size="17.0" fill="#DCDDE0" transform="matrix(1.00, 0.00, -0.00, -1.00, 417.4, 733.0)">n</text><text xml:space="preserve" font-family="Helvetica" font-size="17.0" fill="#DCDDE0" transform="matrix(1.00, 0.00, -0.00, -1.00, 426.9, 733.0)">t</text><text xml:space="preserve" font-family="Helvetica" font-size="17.0" fill="#DCDDE0" transform="matrix(1.00, 0.00, -0.00, -1.00, 431.6, 733.0)">s</text><text xml:space="preserve" font-family="Helvetica" font-size="17.0" fill="#DCDDE0" transform="matrix(1.00, 0.00, -0.00, -1.00, 440.1, 733.0)">/</text><text xml:space="preserve" font-family="Helvetica" font-size="17.0" fill="#DCDDE0" transform="matrix(1.00, 0.00, -0.00, -1.00, 444.8, 733.0)">l</text><text xml:space="preserve" font-family="Helvetica" font-size="17.0" fill="#DCDDE0" transform="matrix(1.00, 0.00, -0.00, -1.00, 448.6, 733.0)">a</text><text xml:space="preserve" font-family="Helvetica" font-size="17.0" fill="#DCDDE0" transform="matrix(1.00, 0.00, -0.00, -1.00, 458.1, 733.0)">k</text><text xml:space="preserve" font-family="Helvetica" font-size="17.0" fill="#DCDDE0" transform="matrix(1.00, 0.00, -0.00, -1.00, 466.6, 733.0)">e</text><text xml:space="preserve" font-family="Helvetica" font-size="17.0" fill="#DCDDE0" transform="matrix(1.00, 0.00, -0.00, -1.00, 476.0, 733.0)">_</text><text xml:space="preserve" font-family="Helvetica" font-size="17.0" fill="#DCDDE0" transform="matrix(1.00, 0.00, -0.00, -1.00, 485.5, 733.0)">s</text><text xml:space="preserve" font-family="Helvetica" font-size="17.0" fill="#DCDDE0" transform="matrix(1.00, 0.00, -0.00, -1.00, 494.0, 733.0)">e</text><text xml:space="preserve" font-family="Helvetica" font-size="17.0" fill="#DCDDE0" transform="matrix(1.00, 0.00, -0.00, -1.00, 503.5, 733.0)">d</text><text xml:space="preserve" font-family="Helvetica" font-size="17.0" fill="#DCDDE0" transform="matrix(1.00, 0.00, -0.00, -1.00, 512.9, 733.0)">g</text><text xml:space="preserve" font-family="Helvetica" font-size="17.0" fill="#DCDDE0" transform="matrix(1.00, 0.00, -0.00, -1.00, 522.4, 733.0)">e</text><text xml:space="preserve" font-family="Helvetica" font-size="17.0" fill="#DCDDE0" transform="matrix(1.00, 0.00, -0.00, -1.00, 531.8, 733.0)">.</text><text xml:space="preserve" font-family="Helvetica" font-size="17.0" fill="#DCDDE0" transform="matrix(1.00, 0.00, -0.00, -1.00, 536.5, 733.0)">h</text><text xml:space="preserve" font-family="Helvetica" font-size="17.0" fill="#DCDDE0" transform="matrix(1.00, 0.00, -0.00, -1.00, 546.0, 733.0)">t</text><text xml:space="preserve" font-family="Helvetica" font-size="17.0" fill="#DCDDE0" transform="matrix(1.00, 0.00, -0.00, -1.00, 550.7, 733.0)">m</text><text xml:space="preserve" font-family="Helvetica" font-size="17.0" fill="#DCDDE0" transform="matrix(1.00, 0.00, -0.00, -1.00, 564.9, 733.0)">l</text><g><clipPath id="clip-73"><path d="M 79.5 730.6 L 568.1 730.6 L 568.1 733.4 L 79.5 733.4 Z M 79.5 730.6 "></path></clipPath><g clip-path="url(#clip-73)"><path d="M 55.0 21.4 L 542.6 21.4 " fill="none" stroke="#DCDDE0" stroke-width="0.84" stroke-miterlimit="0.00" transform="matrix(1.00, 0.00, 0.00, -1.00, 25.5, 753.3)"></path></g></g></g></svg>