<?xml version="1.0" encoding="UTF-8" standalone="no"?><svg xmlns="http://www.w3.org/2000/svg" xmlns:xlink="http://www.w3.org/1999/xlink" clip-rule="evenodd" stroke-miterlimit="4.00" viewBox="0 0 1024 768"><desc>SVG generated by Keynote</desc><defs></defs><g transform="matrix(1.00, 0.00, -0.00, -1.00, 0.0, 768.0)"><path d="M 0.0 768.0 L 1024.0 768.0 L 1024.0 0.0 L 0.0 0.0 Z M 0.0 768.0 " fill="#000000"></path><image xlink:href="../../526EF622-897F-4B9E-A63F-82C1D0662D49/assets/456122F687340713CEC035F379788185.png" width="720.00" height="540.00" transform="matrix(1.42, 0.00, -0.00, -1.42, 0.0, 768.0)"></image><text xml:space="preserve" font-family="Helvetica" font-size="17.0" fill="#DCDDE0" transform="matrix(1.00, 0.00, -0.00, -1.00, 710.0, 735.0)">c</text><text xml:space="preserve" font-family="Helvetica" font-size="17.0" fill="#DCDDE0" transform="matrix(1.00, 0.00, -0.00, -1.00, 718.5, 735.0)">r</text><text xml:space="preserve" font-family="Helvetica" font-size="17.0" fill="#DCDDE0" transform="matrix(1.00, 0.00, -0.00, -1.00, 724.2, 735.0)">e</text><text xml:space="preserve" font-family="Helvetica" font-size="17.0" fill="#DCDDE0" transform="matrix(1.00, 0.00, -0.00, -1.00, 733.6, 735.0)">d</text><text xml:space="preserve" font-family="Helvetica" font-size="17.0" fill="#DCDDE0" transform="matrix(1.00, 0.00, -0.00, -1.00, 743.1, 735.0)">i</text><text xml:space="preserve" font-family="Helvetica" font-size="17.0" fill="#DCDDE0" transform="matrix(1.00, 0.00, -0.00, -1.00, 746.9, 735.0)">t</text><text xml:space="preserve" font-family="Helvetica" font-size="17.0" fill="#DCDDE0" transform="matrix(1.00, 0.00, -0.00, -1.00, 751.6, 735.0)">:</text><text xml:space="preserve" font-family="Helvetica" font-size="17.0" fill="#DCDDE0" transform="matrix(1.00, 0.00, -0.00, -1.00, 756.3, 735.0)"> </text><text xml:space="preserve" font-family="Helvetica" font-size="17.0" fill="#DCDDE0" transform="matrix(1.00, 0.00, -0.00, -1.00, 761.0, 735.0)">J</text><text xml:space="preserve" font-family="Helvetica" font-size="17.0" fill="#DCDDE0" transform="matrix(1.00, 0.00, -0.00, -1.00, 769.5, 735.0)">o</text><text xml:space="preserve" font-family="Helvetica" font-size="17.0" fill="#DCDDE0" transform="matrix(1.00, 0.00, -0.00, -1.00, 779.0, 735.0)">h</text><text xml:space="preserve" font-family="Helvetica" font-size="17.0" fill="#DCDDE0" transform="matrix(1.00, 0.00, -0.00, -1.00, 788.4, 735.0)">n</text><text xml:space="preserve" font-family="Helvetica" font-size="17.0" fill="#DCDDE0" transform="matrix(1.00, 0.00, -0.00, -1.00, 797.9, 735.0)"> </text><text xml:space="preserve" font-family="Helvetica" font-size="17.0" fill="#DCDDE0" transform="matrix(1.00, 0.00, -0.00, -1.00, 802.6, 735.0)">P</text><text xml:space="preserve" font-family="Helvetica" font-size="17.0" fill="#DCDDE0" transform="matrix(1.00, 0.00, -0.00, -1.00, 813.9, 735.0)">o</text><text xml:space="preserve" font-family="Helvetica" font-size="17.0" fill="#DCDDE0" transform="matrix(1.00, 0.00, -0.00, -1.00, 823.4, 735.0)">g</text><text xml:space="preserve" font-family="Helvetica" font-size="17.0" fill="#DCDDE0" transform="matrix(1.00, 0.00, -0.00, -1.00, 832.9, 735.0)">a</text><text xml:space="preserve" font-family="Helvetica" font-size="17.0" fill="#DCDDE0" transform="matrix(1.00, 0.00, -0.00, -1.00, 842.3, 735.0)">c</text><text xml:space="preserve" font-family="Helvetica" font-size="17.0" fill="#DCDDE0" transform="matrix(1.00, 0.00, -0.00, -1.00, 850.8, 735.0)">n</text><text xml:space="preserve" font-family="Helvetica" font-size="17.0" fill="#DCDDE0" transform="matrix(1.00, 0.00, -0.00, -1.00, 860.3, 735.0)">i</text><text xml:space="preserve" font-family="Helvetica" font-size="17.0" fill="#DCDDE0" transform="matrix(1.00, 0.00, -0.00, -1.00, 864.1, 735.0)">k</text><text xml:space="preserve" font-family="Helvetica" font-size="17.0" fill="#DCDDE0" transform="matrix(1.00, 0.00, -0.00, -1.00, 872.5, 735.0)">,</text><text xml:space="preserve" font-family="Helvetica" font-size="17.0" fill="#DCDDE0" transform="matrix(1.00, 0.00, -0.00, -1.00, 877.3, 735.0)"> </text><text xml:space="preserve" font-family="Helvetica" font-size="17.0" fill="#DCDDE0" transform="matrix(1.00, 0.00, -0.00, -1.00, 882.0, 735.0)">L</text><text xml:space="preserve" font-family="Helvetica" font-size="17.0" fill="#DCDDE0" transform="matrix(1.00, 0.00, -0.00, -1.00, 891.4, 735.0)">a</text><text xml:space="preserve" font-family="Helvetica" font-size="17.0" fill="#DCDDE0" transform="matrix(1.00, 0.00, -0.00, -1.00, 900.9, 735.0)">k</text><text xml:space="preserve" font-family="Helvetica" font-size="17.0" fill="#DCDDE0" transform="matrix(1.00, 0.00, -0.00, -1.00, 909.4, 735.0)">e</text><text xml:space="preserve" font-family="Helvetica" font-size="17.0" fill="#DCDDE0" transform="matrix(1.00, 0.00, -0.00, -1.00, 918.9, 735.0)"> </text><text xml:space="preserve" font-family="Helvetica" font-size="17.0" fill="#DCDDE0" transform="matrix(1.00, 0.00, -0.00, -1.00, 923.6, 735.0)">M</text><text xml:space="preserve" font-family="Helvetica" font-size="17.0" fill="#DCDDE0" transform="matrix(1.00, 0.00, -0.00, -1.00, 937.7, 735.0)">e</text><text xml:space="preserve" font-family="Helvetica" font-size="17.0" fill="#DCDDE0" transform="matrix(1.00, 0.00, -0.00, -1.00, 947.2, 735.0)">t</text><text xml:space="preserve" font-family="Helvetica" font-size="17.0" fill="#DCDDE0" transform="matrix(1.00, 0.00, -0.00, -1.00, 951.9, 735.0)">r</text><text xml:space="preserve" font-family="Helvetica" font-size="17.0" fill="#DCDDE0" transform="matrix(1.00, 0.00, -0.00, -1.00, 957.6, 735.0)">o</text><text xml:space="preserve" font-family="Helvetica" font-size="17.0" fill="#DCDDE0" transform="matrix(1.00, 0.00, -0.00, -1.00, 967.0, 735.0)">p</text><text xml:space="preserve" font-family="Helvetica" font-size="17.0" fill="#DCDDE0" transform="matrix(1.00, 0.00, -0.00, -1.00, 976.5, 735.0)">a</text><text xml:space="preserve" font-family="Helvetica" font-size="17.0" fill="#DCDDE0" transform="matrix(1.00, 0.00, -0.00, -1.00, 985.9, 735.0)">r</text><text xml:space="preserve" font-family="Helvetica" font-size="17.0" fill="#DCDDE0" transform="matrix(1.00, 0.00, -0.00, -1.00, 991.6, 735.0)">k</text><text xml:space="preserve" font-family="Helvetica" font-size="17.0" fill="#DCDDE0" transform="matrix(1.00, 0.00, -0.00, -1.00, 1000.1, 735.0)">s</text><image xlink:href="../../526EF622-897F-4B9E-A63F-82C1D0662D49/assets/DF45C5C04F231E96E43BF4A0728FA62A.png" width="161.00" height="44.00" transform="matrix(1.00, 0.00, -0.00, -1.00, 71.0, 749.0)"></image><text xml:space="preserve" font-family="Helvetica-Light" font-size="36.0" fill="#FEFFFF" transform="matrix(1.00, 0.00, -0.00, -1.00, 74.0, 720.0)">E</text><text xml:space="preserve" font-family="Helvetica-Light" font-size="36.0" fill="#FEFFFF" transform="matrix(1.00, 0.00, -0.00, -1.00, 96.0, 720.0)">u</text><text xml:space="preserve" font-family="Helvetica-Light" font-size="36.0" fill="#FEFFFF" transform="matrix(1.00, 0.00, -0.00, -1.00, 116.0, 720.0)">r</text><text xml:space="preserve" font-family="Helvetica-Light" font-size="36.0" fill="#FEFFFF" transform="matrix(1.00, 0.00, -0.00, -1.00, 127.4, 720.0)">o</text><text xml:space="preserve" font-family="Helvetica-Light" font-size="36.0" fill="#FEFFFF" transform="matrix(1.00, 0.00, -0.00, -1.00, 147.4, 720.0)">p</text><text xml:space="preserve" font-family="Helvetica-Light" font-size="36.0" fill="#FEFFFF" transform="matrix(1.00, 0.00, -0.00, -1.00, 169.4, 720.0)">e</text><text xml:space="preserve" font-family="Helvetica-Light" font-size="36.0" fill="#FEFFFF" transform="matrix(1.00, 0.00, -0.00, -1.00, 189.4, 720.0)">a</text><text xml:space="preserve" font-family="Helvetica-Light" font-size="36.0" fill="#FEFFFF" transform="matrix(1.00, 0.00, -0.00, -1.00, 209.4, 720.0)">n</text><text xml:space="preserve" font-family="Helvetica-Light" font-size="36.0" fill="#FEFFFF" transform="matrix(1.00, 0.00, -0.00, -1.00, 229.4, 720.0)"> </text><image xlink:href="../../526EF622-897F-4B9E-A63F-82C1D0662D49/assets/C14DD9A1373B956072D24B3B5C50195B.png" width="185.00" height="44.00" transform="matrix(1.00, 0.00, -0.00, -1.00, 59.0, 706.0)"></image><text xml:space="preserve" font-family="Helvetica-Light" font-size="36.0" fill="#FEFFFF" transform="matrix(1.00, 0.00, -0.00, -1.00, 62.0, 677.0)">H</text><text xml:space="preserve" font-family="Helvetica-Light" font-size="36.0" fill="#FEFFFF" transform="matrix(1.00, 0.00, -0.00, -1.00, 88.0, 677.0)">o</text><text xml:space="preserve" font-family="Helvetica-Light" font-size="36.0" fill="#FEFFFF" transform="matrix(1.00, 0.00, -0.00, -1.00, 108.0, 677.0)">n</text><text xml:space="preserve" font-family="Helvetica-Light" font-size="36.0" fill="#FEFFFF" transform="matrix(1.00, 0.00, -0.00, -1.00, 128.0, 677.0)">e</text><text xml:space="preserve" font-family="Helvetica-Light" font-size="36.0" fill="#FEFFFF" transform="matrix(1.00, 0.00, -0.00, -1.00, 148.0, 677.0)">y</text><text xml:space="preserve" font-family="Helvetica-Light" font-size="36.0" fill="#FEFFFF" transform="matrix(1.00, 0.00, -0.00, -1.00, 166.0, 677.0)"> </text><text xml:space="preserve" font-family="Helvetica-Light" font-size="36.0" fill="#FEFFFF" transform="matrix(1.00, 0.00, -0.00, -1.00, 176.0, 677.0)">B</text><text xml:space="preserve" font-family="Helvetica-Light" font-size="36.0" fill="#FEFFFF" transform="matrix(1.00, 0.00, -0.00, -1.00, 200.1, 677.0)">e</text><text xml:space="preserve" font-family="Helvetica-Light" font-size="36.0" fill="#FEFFFF" transform="matrix(1.00, 0.00, -0.00, -1.00, 220.1, 677.0)">e</text><text xml:space="preserve" font-family="Helvetica-Light" font-size="36.0" fill="#FEFFFF" transform="matrix(1.00, 0.00, -0.00, -1.00, 240.1, 677.0)"> </text><image xlink:href="../../526EF622-897F-4B9E-A63F-82C1D0662D49/assets/882C32CC3A68BDD35530D2D4C3A001CC.png" width="228.00" height="45.00" transform="matrix(1.00, 0.00, -0.00, -1.00, 37.0, 664.0)"></image><text xml:space="preserve" font-family="Helvetica-LightOblique" font-style="italic" font-size="36.0" fill="#FEFFFF" transform="matrix(1.00, 0.00, -0.00, -1.00, 42.0, 634.0)">A</text><text xml:space="preserve" font-family="Helvetica-LightOblique" font-style="italic" font-size="36.0" fill="#FEFFFF" transform="matrix(1.00, 0.00, -0.00, -1.00, 66.0, 634.0)">p</text><text xml:space="preserve" font-family="Helvetica-LightOblique" font-style="italic" font-size="36.0" fill="#FEFFFF" transform="matrix(1.00, 0.00, -0.00, -1.00, 88.0, 634.0)">i</text><text xml:space="preserve" font-family="Helvetica-LightOblique" font-style="italic" font-size="36.0" fill="#FEFFFF" transform="matrix(1.00, 0.00, -0.00, -1.00, 96.0, 634.0)">s</text><text xml:space="preserve" font-family="Helvetica-LightOblique" font-style="italic" font-size="36.0" fill="#FEFFFF" transform="matrix(1.00, 0.00, -0.00, -1.00, 114.0, 634.0)"> </text><text xml:space="preserve" font-family="Helvetica-LightOblique" font-style="italic" font-size="36.0" fill="#FEFFFF" transform="matrix(1.00, 0.00, -0.00, -1.00, 124.0, 634.0)">m</text><text xml:space="preserve" font-family="Helvetica-LightOblique" font-style="italic" font-size="36.0" fill="#FEFFFF" transform="matrix(1.00, 0.00, -0.00, -1.00, 154.0, 634.0)">e</text><text xml:space="preserve" font-family="Helvetica-LightOblique" font-style="italic" font-size="36.0" fill="#FEFFFF" transform="matrix(1.00, 0.00, -0.00, -1.00, 174.0, 634.0)">l</text><text xml:space="preserve" font-family="Helvetica-LightOblique" font-style="italic" font-size="36.0" fill="#FEFFFF" transform="matrix(1.00, 0.00, -0.00, -1.00, 182.0, 634.0)">l</text><text xml:space="preserve" font-family="Helvetica-LightOblique" font-style="italic" font-size="36.0" fill="#FEFFFF" transform="matrix(1.00, 0.00, -0.00, -1.00, 190.0, 634.0)">i</text><text xml:space="preserve" font-family="Helvetica-LightOblique" font-style="italic" font-size="36.0" fill="#FEFFFF" transform="matrix(1.00, 0.00, -0.00, -1.00, 198.0, 634.0)">f</text><text xml:space="preserve" font-family="Helvetica-LightOblique" font-style="italic" font-size="36.0" fill="#FEFFFF" transform="matrix(1.00, 0.00, -0.00, -1.00, 208.0, 634.0)">e</text><text xml:space="preserve" font-family="Helvetica-LightOblique" font-style="italic" font-size="36.0" fill="#FEFFFF" transform="matrix(1.00, 0.00, -0.00, -1.00, 228.0, 634.0)">r</text><text xml:space="preserve" font-family="Helvetica-LightOblique" font-style="italic" font-size="36.0" fill="#FEFFFF" transform="matrix(1.00, 0.00, -0.00, -1.00, 240.0, 634.0)">a</text></g></svg>